<?xml version="1.0" encoding="UTF-8" standalone="no"?>
<!-- Created with Inkscape (http://www.inkscape.org/) -->

<svg
   xmlns:dc="http://purl.org/dc/elements/1.1/"
   xmlns:cc="http://creativecommons.org/ns#"
   xmlns:rdf="http://www.w3.org/1999/02/22-rdf-syntax-ns#"
   xmlns:svg="http://www.w3.org/2000/svg"
   xmlns="http://www.w3.org/2000/svg"
   xmlns:sodipodi="http://sodipodi.sourceforge.net/DTD/sodipodi-0.dtd"
   xmlns:inkscape="http://www.inkscape.org/namespaces/inkscape"
   width="198.79691"
   height="198.85477"
   id="svg2"
   version="1.1"
   inkscape:version="0.48.2 r9819"
   sodipodi:docname="lasem.svg"
   inkscape:export-filename="/home/pacaud/Images/Dessins/lasem-256.png"
   inkscape:export-xdpi="115.9"
   inkscape:export-ydpi="115.9">
  <defs
     id="defs4" />
  <sodipodi:namedview
     id="base"
     pagecolor="#ffffff"
     bordercolor="#666666"
     borderopacity="1.0"
     inkscape:pageopacity="0.0"
     inkscape:pageshadow="2"
     inkscape:zoom="0.7082149"
     inkscape:cx="-312.60324"
     inkscape:cy="-232.66801"
     inkscape:document-units="px"
     inkscape:current-layer="layer1"
     showgrid="false"
     fit-margin-top="0"
     fit-margin-left="0"
     fit-margin-right="0"
     fit-margin-bottom="0"
     inkscape:window-width="1280"
     inkscape:window-height="965"
     inkscape:window-x="0"
     inkscape:window-y="27"
     inkscape:window-maximized="1" />
  <metadata
     id="metadata7">
    <rdf:RDF>
      <cc:Work
         rdf:about="">
        <dc:format>image/svg+xml</dc:format>
        <dc:type
           rdf:resource="http://purl.org/dc/dcmitype/StillImage" />
        <dc:title></dc:title>
      </cc:Work>
    </rdf:RDF>
  </metadata>
  <g
     inkscape:label="Calque 1"
     inkscape:groupmode="layer"
     id="layer1"
     transform="translate(-40.85983,-23.346677)">
    <path
       style="font-size:medium;font-style:normal;font-variant:normal;font-weight:normal;font-stretch:normal;text-indent:0;text-align:start;text-decoration:none;line-height:normal;letter-spacing:normal;word-spacing:normal;text-transform:none;direction:ltr;block-progression:tb;writing-mode:lr-tb;text-anchor:start;baseline-shift:baseline;color:#000000;fill:#ffffff;fill-opacity:1;fill-rule:nonzero;stroke:none;stroke-width:8;marker:none;visibility:visible;display:inline;overflow:visible;enable-background:accumulate;font-family:Sans;-inkscape-font-specification:Sans"
       d="m 150.55103,23.373802 c -0.82645,-0.0593 -1.65538,-0.023 -2.5,0.125 -3.37846,0.59205 -6.03342,2.71476 -8.65625,5.53125 -1.29939,1.39533 -1.84572,1.8084 -2.1875,2.09375 -0.97922,-0.46886 -2.08674,-0.85226 -3.78125,-0.4375 -1.18395,0.2898 -2.34393,1.15046 -2.96875,2.03125 -0.62481,0.88079 -0.88866,1.71475 -1.0625,2.5 -0.69536,3.14099 -0.29431,6.57064 0.3125,12.6875 0.86632,8.73281 1.26518,18.90155 1.21875,27.875 -0.0135,2.60294 -0.1554,4.77358 -0.25,7.125 l -5.46875,0 c -0.73681,-0.71786 -1.59174,-1.55058 -2.34375,-2.28125 -0.0278,-4.06906 0.26356,-8.61632 1.0625,-14.15625 0.71574,-4.96297 0.94834,-8.86893 0.4375,-12.34375 -0.51083,-3.47482 -1.95905,-6.53791 -4.125,-8.875 -2.10131,-2.26764 -4.98996,-3.81171 -8.0625,-3.8125 -3.07254,-7.9e-4 -5.92303,1.33053 -8.5625,3.34375 l -0.375,0.28125 -0.46875,-0.5625 c -5.142323,-6.23853 -11.711753,-9.58694 -18.312503,-8.9375 -6.60075,0.64944 -12.49757,5.15376 -16.65625,12.25 -1.35503,2.31219 -3.34408,3.97594 -4,4.25 -6.28911,2.62776 -10,8.6552 -10,15.75 0,2.17435 -0.18584,3.10443 -0.21875,3.1875 -0.0329,0.0831 0.0436,0.0885 -1.0625,0.90625 -2.93073,2.16679 -4.88865,5.28641 -6.09375,8.65625 -1.2051,3.36984 -1.67775,7.06178 -0.78125,10.59375 0.36785,1.44921 0.37165,2.02379 0.375,2 0.003,-0.0238 0.11302,-0.1247 -0.46875,0.59375 -1.71162,2.11375 -2.89101,4.74782 -3.6875,7.406248 -1.04608,3.49152 -0.77284,6.93704 0.84375,10.34375 0.79771,1.68105 0.87756,2.1908 0.875,2.03125 -0.003,-0.15955 -0.0107,0.16836 -0.75,1.71875 -3.90815,8.19549 -1.87358,17.63993 4.90625,23.3125 -1.93858,1.51158 -3.17197,3.27649 -4.09375,5.46875 -1.12277,2.67031 -1.37281,5.76206 -0.4375,8.5625 0.93532,2.80044 2.79181,5.18089 5.28125,7.59375 1.27952,1.24016 1.7062,1.93394 1.75,2.03125 0.0438,0.0973 0.0871,-0.079 -0.0625,0.875 -0.97311,6.20643 2.25777,12.48402 7.34375,17.28125 0.75439,0.71155 1.48573,1.58998 1.9375,2.25 0.45178,0.66002 0.34375,1.60392 0.34375,0 0,4.26782 2.30848,7.74264 5.09375,10.5625 2.78527,2.81986 6.18973,5.14849 10.46875,5.15625 -1.17909,-0.002 -0.59952,-0.14024 0,0.3125 0.59953,0.45274 1.43091,1.24602 2.1875,2.1875 1.11121,1.38275 2.39757,2.62433 3.71875,3.65625 1.32119,1.03192 2.45436,1.92067 4.40625,2.375 0.0443,0.0103 3.99176,1.67034 6.40625,3.1875 4.00505,2.51657 7.57239,3.69809 11.406253,3.53125 1.51217,-0.0658 2.01116,0.0311 2.25,0.125 0.23885,0.0939 0.65601,0.33097 1.65625,1.375 4.0147,4.19044 9.77703,6.087 14.9375,4.125 0.83867,-0.31886 0.72785,-0.40972 3.3125,0.8125 2.46513,1.1657 4.2694,2.02465 6.59375,2.15625 2.32436,0.1316 4.27063,-0.61282 6.46875,-1.53125 5.65055,-2.36095 9.68262,-7.59874 10.65625,-13.6875 0.14971,-0.93622 0.33702,-1.3751 0.5,-1.90625 4.15964,1.38233 8.3847,1.61776 12.03125,0.75 1.8736,-0.44586 3.64242,-1.15355 5.15625,-2.4375 1.51383,-1.28395 2.75,-3.41433 2.75,-5.71875 0,-1.72949 -0.48068,-2.81401 -1.0625,-4.1875 -0.58182,-1.37349 -1.3622,-2.91386 -2.34375,-4.625 -1.96311,-3.42227 -4.73876,-7.60775 -8.15625,-12.34375 -9.12826,-12.65007 -12.57612,-20.45062 -13.5625,-29.8125 -0.30147,-2.86127 -0.5805,-4.76464 -0.875,-7.03125 0.77464,0.44389 0.56817,0.2453 1.53125,0.90625 4.85079,3.32906 12.28643,10.52886 18.84375,18.03125 6.55732,7.50239 12.40662,15.5863 14.4375,20 1.78588,3.88124 3.7699,7.0563 6.03125,9.46875 2.26135,2.41245 4.98393,4.28125 8.34375,4.28125 4.03468,0 7.19953,-2.04198 10.21875,-4.46875 3.01922,-2.42677 5.71355,-5.24933 6.84375,-9 -0.24694,0.81958 0.0459,-0.0237 0.65625,-0.65625 0.61039,-0.63258 1.47752,-1.37437 2.28125,-1.90625 5.83161,-3.85918 8.59502,-11.08576 7.4375,-18.21875 -0.1582,-0.9749 -0.099,-0.92453 -0.0937,-0.9375 0.005,-0.013 0.27164,-0.50279 1.3125,-1.5 5.26479,-5.04399 8.76267,-11.81089 7.53125,-18.375 -0.37949,-2.02284 -0.39027,-1.98408 1.46875,-5.15625 3.45,-5.887 4.30048,-13.0342 1.625,-18.90625 -0.0306,-0.0673 -0.007,-0.0386 -0.0312,-0.0937 0.0885,-0.11098 0.0849,-0.13399 0.25,-0.3125 4.79993,-5.18831 7.77751,-11.90639 7.0625,-18.249998 -0.78603,-6.97364 -3.36983,-13.2234 -8.96875,-15.75 0.14458,-0.61133 0.23124,-1.1424 0.5625,-2.09375 1.04825,-3.01054 1.63866,-5.84437 1,-8.75 -0.63866,-2.90563 -2.33012,-5.30121 -4.5625,-7.84375 -2.07837,-2.36713 -4.1836,-4.23236 -6.84375,-5.375 -2.66015,-1.14264 -5.52042,-1.4834 -9.03125,-1.5625 -1.99164,-0.0449 -2.76854,-0.17507 -3.15625,-0.34375 -0.38771,-0.16868 -0.91561,-0.58749 -2.21875,-1.96875 -2.44686,-2.59353 -5.33546,-4.60137 -8.8125,-5.3125 -0.41664,-0.0852 -0.46556,-0.11114 -0.625,-0.15625 -0.068,-0.24208 -0.14633,-0.51847 -0.25,-1.15625 -0.46093,-2.83571 -1.7064,-5.52597 -3.71875,-7.53125 -2.01235,-2.00528 -4.63316,-3.26766 -7.625,-4.09375 -0.66105,-0.18253 -3.25534,-1.82609 -3.78125,-2.4375 -1.17899,-1.37066 -2.68549,-2.66735 -4.53125,-3.40625 -1.84576,-0.7389 -3.74639,-0.98506 -6.1875,-1.1875 -3.73178,-0.30946 -7.21489,-0.32191 -10.40625,1 -1.01479,0.42034 -0.96529,0.33115 -0.875,0.34375 0.0903,0.0126 -0.42434,-0.12931 -1.75,-0.9375 -2.32039,-1.41462 -4.73939,-2.44723 -7.21875,-2.625 z"
       id="path4068"
       inkscape:connector-curvature="0" />
    <path
       inkscape:connector-curvature="0"
       id="path3052"
       d="m 127.40091,216.40951 c -2.94397,-1.39213 -4.57637,-1.62714 -6.42373,-0.92477 -3.55531,1.35173 -7.4258,0.20279 -10.64846,-3.16094 -2.30672,-2.4077 -3.53607,-2.8908 -6.97528,-2.74112 -3.14485,0.13687 -5.387868,-0.58039 -9.090288,-2.90682 -2.70339,-1.69869 -6.13483,-3.37239 -7.62541,-3.71934 -1.49058,-0.34695 -4.1534,-2.42675 -5.91736,-4.62177 -1.88444,-2.34493 -4.06618,-3.99249 -5.28985,-3.99469 -4.96082,-0.009 -11.58264,-6.71301 -11.58264,-11.72655 0,-1.00629 -1.59024,-3.32958 -3.53388,-5.16286 -4.332952,-4.08695 -6.775062,-9.5688 -6.121052,-13.74 0.40527,-2.58471 -0.0993,-3.70552 -2.88244,-6.40307 -4.47355,-4.33593 -5.60431,-7.72155 -3.91822,-11.73158 0.72325,-1.7201 2.24663,-3.70927 3.38529,-4.42037 2.53964,-1.58603 2.63873,-3.28058 0.29267,-5.00513 -6.1119,-4.49275 -7.93515,-12.14712 -4.57288,-19.19787 1.54401,-3.23782 1.53664,-3.69683 -0.11519,-7.17779 -1.47055,-3.09896 -1.57696,-4.34529 -0.63845,-7.47775 0.61942,-2.06744 1.95359,-4.780746 2.96483,-6.029566 1.53087,-1.89055 1.67509,-2.91483 0.86165,-6.11953 -1.25972,-4.96292 1.25177,-11.98585 5.37699,-15.03575 2.55122,-1.8862 2.90068,-2.76828 2.90068,-7.32165 0,-6.01534 2.434992,-9.89495 7.552482,-12.03317 2.00898,-0.83941 4.22374,-3.06243 5.89896,-5.92099 7.42866,-12.67605 19.34005,-13.84799 28.44764,-2.79891 l 2.921808,3.54467 3.43394,-2.6192 c 4.41303,-3.36598 8.14935,-3.36513 11.27044,0.003 3.30412,3.5652 4.01258,8.38431 2.63593,17.93012 -1.93045,13.38587 -1.52156,22.44507 1.3584,30.09644 1.38579,3.681699 3.01589,7.291976 3.62245,8.022826 0.99046,1.19344 6.85794,1.9585 6.85794,0.89421 0,-0.23905 0.73024,-3.72655 1.62275,-7.749996 1.90477,-8.58675 2.02498,-31.82015 0.25687,-49.64331 -1.1983,-12.07923 -0.70785,-14.29458 2.73771,-12.36635 1.48782,0.83263 2.54114,0.22795 5.91627,-3.39637 4.7334,-5.08288 7.9304,-5.64313 13.34946,-2.3394 2.89471,1.76476 3.7976,1.89076 6.25504,0.87285 1.63799,-0.67848 5.30583,-0.98779 8.5364,-0.71989 4.61121,0.3824 6.10292,0.97956 8.02297,3.21176 1.29723,1.50811 3.88497,3.16347 5.75054,3.67858 5.09424,1.40659 7.72771,4.03081 8.4395,8.40986 0.56127,3.45302 1.02462,3.97919 4.04882,4.5977 1.96542,0.40197 4.79998,2.16644 6.67776,4.15678 2.81928,2.98829 3.93446,3.47347 8.20481,3.56968 6.59372,0.14856 9.19546,1.26611 12.97854,5.57479 4.11178,4.68306 4.66737,7.21077 2.77777,12.63763 -2.00183,5.74918 -2.05052,5.50079 1.35464,6.91125 3.40435,1.41013 6.14235,6.48991 6.84153,12.69301 0.51053,4.529429 -1.93933,10.655576 -6.029,15.076156 -1.7667,1.90965 -1.90055,2.6173 -0.90739,4.79705 1.97017,4.32406 1.4007,10.38496 -1.42951,15.21436 -2.02895,3.46214 -2.45237,5.18494 -1.94242,7.9032 0.78399,4.17906 -1.96096,10.53201 -6.37982,14.76555 -2.37325,2.27372 -2.82508,3.3957 -2.40641,5.97565 0.92717,5.7135 -1.32191,11.34084 -5.68716,14.22963 -2.15921,1.4289 -4.21575,3.5602 -4.57009,4.73623 -1.37394,4.55954 -8.93593,10.63781 -13.23505,10.63781 -3.43703,0 -7.40294,-4.23091 -10.7168,-11.43289 -4.84483,-10.52925 -23.77201,-32.18428 -34.66285,-39.65858 -6.903,-4.73747 -8.95582,-5.02539 -8.26011,-1.15853 0.27212,1.5125 0.88592,6.46253 1.364,11.00006 1.06824,10.13883 4.98836,18.84006 14.3041,31.74994 6.71935,9.31176 10.78714,16.40313 10.78714,18.80517 0,4.14832 -7.88601,6.02494 -14.95816,3.55957 -3.79586,-1.32324 -4.49934,-0.65881 -5.42385,5.12275 -0.74754,4.67478 -3.98998,8.85216 -8.25378,10.63369 -4.20272,1.75601 -5.02104,1.70968 -9.81119,-0.55547 z m 9.59737,-4.1462 c 2.55239,-1.366 4.8496,-6.7833 4.8496,-11.43638 0,-3.20049 -0.92996,-4.4666 -8.75,-11.91276 -6.83434,-6.50759 -9.72565,-10.16398 -13.2064,-16.70102 l -4.45639,-8.36935 -0.74213,3.5 c -0.40817,1.925 -0.48277,5.1875 -0.16579,7.25 0.45217,2.94212 0.24869,3.75 -0.94449,3.75 -1.92244,0 -2.7348,-2.10362 -2.7348,-7.08179 0,-4.98696 -1.71164,-5.10047 -2.53658,-0.16821 -1.4304,8.55221 -3.30254,11.0556 -4.5312,6.05902 -0.54557,-2.2187 -0.63525,-2.18061 -2.29258,0.97368 -2.073398,3.94614 -4.074978,3.23804 -3.261928,-1.15398 l 0.57918,-3.12872 -2.266,2.75 c -1.24631,1.5125 -2.63768,2.75 -3.09194,2.75 -1.12753,0 -0.23218,-4.65537 1.82709,-9.5 l 1.70025,-4 -2.52718,3 c -1.38994,1.65 -2.54336,3.3375 -2.56314,3.75 -0.0198,0.4125 -0.71096,0.75 -1.53596,0.75 -2.11825,0 -1.86183,-2.65889 0.66368,-6.88197 l 2.16368,-3.61803 -3.55095,3.33691 c -4.13336,3.8842 -6.02222,2.72141 -2.83964,-1.7481 2.63657,-3.70273 2.59533,-4.08881 -0.43677,-4.08881 -3.36076,0 -3.15826,-1.60824 0.43659,-3.46721 4.70279,-2.43191 4.36305,-3.268 -1.11411,-2.74171 -4.98001,0.47852 -5.09507,0.43015 -4.51976,-1.90003 0.56647,-2.29442 0.11761,-2.52284 -11.10619,-5.65195 -6.43309,-1.79349 -12.342532,-3.25598 -13.132082,-3.25 -1.77975,0.0135 -6.06445,3.93498 -6.06445,5.55035 0,2.10539 3.84309,6.15821 7.4728,7.88061 3.910632,1.85572 4.311612,3.05569 1.908412,5.7112 -3.495002,3.86193 0.65243,11.85983 6.96255,13.42654 2.70764,0.67228 2.8133,0.90918 2.20743,4.94942 -0.58432,3.89647 -0.3763,4.46214 2.54474,6.92003 2.52808,2.12725 4.02504,2.61471 7.29257,2.37472 3.98493,-0.29268 4.12119,-0.20133 4.42631,2.96743 0.36955,3.83794 3.98388,6.74665 7.139,5.74525 1.54365,-0.48994 2.91235,0.26133 5.5271,3.03378 3.61648,3.83458 3.816798,3.86761 11.642578,1.91976 2.30846,-0.57458 2.84884,-0.19158 4.5,3.1894 2.15483,4.41233 5.71185,5.47922 9.65462,2.89582 2.24839,-1.4732 2.57019,-1.41633 5.30769,0.93793 3.12397,2.68662 6.32112,3.16401 9.56459,1.42816 z m -3.1504,-8.41951 c 0,-0.825 0.675,-1.5 1.5,-1.5 0.825,0 1.5,0.675 1.5,1.5 0,0.825 -0.675,1.5 -1.5,1.5 -0.825,0 -1.5,-0.675 -1.5,-1.5 z m -12.3125,-2.14583 c -1.37384,-1.37385 -0.66124,-3.49576 1.0625,-3.1638 0.9625,0.18536 1.75,0.96836 1.75,1.73999 0,1.57886 -1.76429,2.47201 -2.8125,1.42381 z m -14.6875,-2.85417 c 0,-0.825 0.675,-1.5 1.5,-1.5 0.825,0 1.5,0.675 1.5,1.5 0,0.825 -0.675,1.5 -1.5,1.5 -0.825,0 -1.5,-0.675 -1.5,-1.5 z m 23.5,-0.5 c -1.07686,-1.74239 0.51929,-3.22888 2.07802,-1.93525 0.76998,0.63902 1.15336,1.56088 0.85195,2.04856 -0.72948,1.18032 -2.16477,1.12481 -2.92997,-0.11331 z m -35.499988,-1.92668 c 0,-1.43109 0.64223,-2.07332 2.07332,-2.07332 2.56265,0 2.27193,3.30983 -0.3348,3.81184 -1.2,0.2311 -1.73852,-0.30742 -1.73852,-1.73852 z m 9.499998,-3.07332 c -0.39915,-0.64585 -0.27574,-1.62426 0.27426,-2.17426 0.66666,-0.66667 1.24191,-0.60858 1.72573,0.17426 0.39915,0.64585 0.27574,1.62426 -0.27426,2.17426 -0.66667,0.66667 -1.24191,0.60858 -1.72573,-0.17426 z m 9.49999,-1 c 0,-1.50615 0.52215,-2.04609 1.75,-1.80963 0.9625,0.18536 1.75,0.99969 1.75,1.80963 0,0.80994 -0.7875,1.62427 -1.75,1.80963 -1.22785,0.23646 -1.75,-0.30348 -1.75,-1.80963 z m 12.44615,-0.0871 c -0.36954,-0.59793 -0.2103,-1.54872 0.35385,-2.11287 1.26163,-1.26163 3.2,-0.19612 3.2,1.75902 0,1.68362 -2.57364,1.93987 -3.55385,0.35385 z m -37.269458,-2.46569 c 0.45227,-2.17211 2.22702,-2.30502 2.63295,-0.19718 0.2108,1.0946 -0.27967,1.75 -1.30963,1.75 -0.96073,0 -1.51197,-0.64684 -1.32332,-1.55282 z m -4.67668,-3.44721 c -0.39915,-0.64585 -0.27574,-1.62426 0.27426,-2.17426 0.66667,-0.66667 1.24192,-0.60858 1.72574,0.17426 0.39915,0.64585 0.27574,1.62426 -0.27426,2.17426 -0.66667,0.66667 -1.24192,0.60858 -1.72574,-0.17426 z m 36.499988,-1.5 c 0,-0.825 0.675,-1.5 1.5,-1.5 0.825,0 1.5,0.675 1.5,1.5 0,0.825 -0.675,1.5 -1.5,1.5 -0.825,0 -1.5,-0.675 -1.5,-1.5 z m -43.333318,-4.16667 c -1.26779,-1.26779 -0.65891,-2.33333 1.33333,-2.33333 1.11111,0 2,0.66667 2,1.5 0,1.52241 -2.1154,2.05126 -3.33333,0.83333 z m -0.49379,-8.99252 c 0.19498,-1.01244 1.02335,-1.84081 1.84082,-1.84081 2.1435,0 1.8339,2.90567 -0.35451,3.32712 -1.3364,0.25736 -1.74367,-0.14991 -1.48631,-1.48631 z m -7.72673,-7.42794 c -1.03052,-1.66742 1.28721,-3.57951 2.66672,-2.2 1.15392,1.15392 0.43172,3.28713 -1.11287,3.28713 -0.48508,0 -1.18431,-0.48921 -1.55385,-1.08713 z m -0.10754,-10.47286 c -0.75083,-1.95661 0.15198,-2.84947 2.11826,-2.09493 1.97817,0.75909 1.9808,2.27299 0.005,3.03107 -0.88556,0.33982 -1.78628,-0.0573 -2.12354,-0.93614 z M 56.29404,150.25667 c -1.03052,-1.66742 1.28721,-3.57951 2.666722,-2.2 1.15392,1.15392 0.43172,3.28713 -1.112872,3.28713 -0.48508,0 -1.18431,-0.48921 -1.55385,-1.08713 z m 7.000002,0 c -1.03052,-1.66742 1.28721,-3.57951 2.66672,-2.2 1.15392,1.15392 0.43172,3.28713 -1.11287,3.28713 -0.48508,0 -1.18431,-0.48921 -1.55385,-1.08713 z m 97.213938,46.53054 c 0.37568,-0.97901 -2.79846,-6.52603 -8.55444,-14.94945 -11.51827,-16.85607 -14.62372,-23.98306 -15.90155,-36.49396 -0.53367,-5.225 -1.46178,-10.7375 -2.06246,-12.25 -1.29039,-3.24916 -4.65631,-3.71394 -5.4314,-0.75 -0.28766,1.1 -1.28892,2 -2.22504,2 -1.28076,0 -1.55796,-0.57401 -1.11995,-2.31917 0.4908,-1.95551 -0.0196,-2.58465 -3.2552,-4.01217 -3.66926,-1.61889 -4.02933,-1.60587 -8.22367,0.29721 -2.61623,1.18704 -6.57429,1.99907 -9.80792,2.01217 -3.32264,0.0135 -7.774758,0.95144 -11.499998,2.42285 -3.34315,1.32049 -10.91596,3.42061 -16.82846,4.66693 -12.79401,2.6969 -14.01088,4.0673 -4.90462,5.52345 3.77929,0.60433 4.15462,0.47212 4.15462,-1.46346 0,-1.1703 0.42344,-2.12781 0.94098,-2.12781 1.59913,0 2.28744,2.01985 1.15379,3.38581 -1.34919,1.62568 -0.42077,2.61419 2.45527,2.61419 1.41267,0 2.41639,-0.76364 2.76726,-2.10536 0.67316,-2.57416 3.06823,-2.01126 3.4873,0.81961 0.39429,2.66342 4.61514,3.53367 11.1385,2.29654 6.922898,-1.3129 11.103308,-3.22604 17.342498,-7.93668 5.83268,-4.40371 7.77329,-4.91299 9.73125,-2.5538 1.04215,1.25572 0.69038,2.646 -2.02124,7.98831 -2.99806,5.90666 -3.22767,6.9971 -2.64576,12.56458 0.9768,9.34551 7.03161,20.1351 16.17117,28.81679 8.33893,7.92116 10.94812,9.79908 16.23806,11.68708 5.03109,1.79561 8.17882,1.74834 8.90101,-0.13366 z m -8.02061,-3.13726 c -1.12618,-1.12619 -0.68589,-2.30615 0.86052,-2.30615 0.825,0 1.5,0.42344 1.5,0.94098 0,1.26098 -1.56159,2.1641 -2.36052,1.36517 z m -9.15912,-3.33791 c -0.38836,-0.62838 -0.23556,-1.61305 0.33954,-2.18815 1.34391,-1.3439 4.47715,-0.17169 3.93039,1.47044 -0.5566,1.67168 -3.38638,2.14732 -4.26993,0.71771 z m -2.48037,-6.46824 c 0,-0.825 0.675,-1.5 1.5,-1.5 0.825,0 1.5,0.675 1.5,1.5 0,0.825 -0.675,1.5 -1.5,1.5 -0.825,0 -1.5,-0.675 -1.5,-1.5 z m -4,-6.08333 c 0,-0.87084 0.53437,-1.40521 1.1875,-1.1875 1.85422,0.61807 2.16176,2.77083 0.39583,2.77083 -0.87083,0 -1.58333,-0.7125 -1.58333,-1.58333 z m -4,-5.91667 c 0,-0.825 0.675,-1.5 1.5,-1.5 0.825,0 1.5,0.675 1.5,1.5 0,0.825 -0.675,1.5 -1.5,1.5 -0.825,0 -1.5,-0.675 -1.5,-1.5 z m -3.33333,-5.16667 c -1.15064,-1.15063 -0.72824,-2.33333 0.83333,-2.33333 0.825,0 1.5,0.675 1.5,1.5 0,1.56157 -1.1827,1.98397 -2.33333,0.83333 z m -1.02719,-6.02718 c -1.12618,-1.12619 -0.68589,-2.30615 0.86052,-2.30615 0.825,0 1.5,0.42344 1.5,0.94098 0,1.26098 -1.56159,2.1641 -2.36052,1.36517 z m -1.97281,-6.97282 c -1.15064,-1.15063 -0.72824,-2.33333 0.83333,-2.33333 0.825,0 1.5,0.675 1.5,1.5 0,1.56157 -1.1827,1.98397 -2.33333,0.83333 z m -1.12396,-8.26423 c -0.73955,-1.1966 1.14162,-2.38223 2.4736,-1.55902 1.11836,0.69118 0.38417,2.48992 -1.01631,2.48992 -0.48508,0 -1.14086,-0.41891 -1.45729,-0.9309 z m -36.096548,-2.15623 c -1.03052,-1.66742 1.28721,-3.57951 2.66672,-2.2 1.15392,1.15392 0.43172,3.28713 -1.11287,3.28713 -0.48508,0 -1.18431,-0.48921 -1.55385,-1.08713 z m 5.55385,-2.33955 c 0,-0.92763 0.855,-1.57332 2.08333,-1.57332 2.43705,0 2.09257,2.33677 -0.4162,2.82332 -0.98676,0.19138 -1.66713,-0.31876 -1.66713,-1.25 z m 7.172878,-2.23251 c 0.19498,-1.01244 1.02335,-1.84081 1.84082,-1.84081 2.14349,0 1.83389,2.90567 -0.35451,3.32712 -1.3364,0.25736 -1.74367,-0.14991 -1.48631,-1.48631 z m 24.82711,0.15919 c 0,-0.825 0.675,-1.5 1.5,-1.5 0.825,0 1.5,0.675 1.5,1.5 0,0.825 -0.675,1.5 -1.5,1.5 -0.825,0 -1.5,-0.675 -1.5,-1.5 z m -18.77083,-2.6875 c 0.61807,-1.85422 2.77083,-2.16176 2.77083,-0.39583 0,0.87083 -0.7125,1.58333 -1.58333,1.58333 -0.87084,0 -1.40521,-0.53437 -1.1875,-1.1875 z m 6.4375,-3.47917 c -1.15064,-1.15063 -0.72824,-2.33333 0.83333,-2.33333 0.825,0 1.5,0.675 1.5,1.5 0,1.56157 -1.1827,1.98397 -2.33333,0.83333 z m 84.45099,47.78432 c 2.84942,-2.84943 3.88235,-4.71183 3.88235,-7 0,-2.5776 0.39451,-3.11765 2.27749,-3.11765 5.56163,0 9.09628,-7.25652 6.65821,-13.66911 -0.97807,-2.57252 -0.76787,-3.04392 2.54084,-5.69826 5.12678,-4.11285 6.85809,-7.9155 6.0518,-13.2922 -0.56776,-3.78607 -0.30874,-4.81269 1.86642,-7.39773 3.53902,-4.2059 4.2329,-9.01067 2.10567,-14.58075 l -1.73834,-4.55177 3.01505,-2.75382 c 1.65827,-1.5146 3.74836,-4.17189 4.64463,-5.90509 1.62619,-3.144707 1.62417,-3.151277 -0.96941,-3.151277 -1.94737,0 -2.50767,-0.438769 -2.2347,-1.749999 0.23473,-1.12754 1.15004,-1.66527 2.57333,-1.51179 2.47833,0.26725 2.89319,-1.80848 1.23376,-6.17311 -1.36856,-3.5996 -2.43153,-3.21214 -4.62238,1.6849 -1.04576,2.3375 -4.82483,7.1419 -8.39795,10.676436 -4.14149,4.09678 -6.38458,7.0875 -6.18764,8.25 0.34497,2.03627 -0.85085,2.38949 -2.50146,0.73888 -0.77958,-0.77958 -3.57838,-0.23034 -9.95,1.95257 -4.87593,1.67049 -11.92809,3.34833 -15.67147,3.72853 -9.47668,0.96251 -7.215,2.32139 6.21171,3.73218 10.67177,1.12132 13.85825,2.47413 8.90346,3.77992 -1.26996,0.33469 -6.35902,0.39047 -11.30902,0.12397 -11.56429,-0.62263 -10.53117,0.86012 2.98893,4.28979 10.80473,2.74084 11.02418,2.83848 10.02254,4.45918 -0.44884,0.72623 -2.31271,0.87896 -5.35014,0.4384 -5.3696,-0.77884 -4.89478,0.35597 1.07247,2.56321 6.03383,2.23188 6.26378,4.36406 0.37542,3.48105 -2.53507,-0.38016 -4.60922,-0.42425 -4.60922,-0.098 0,0.32627 1.8,1.51151 4,2.63387 5.04243,2.57245 5.30049,4.46656 0.48549,3.56326 l -3.51452,-0.65933 1.96269,3.22738 c 2.44625,4.02254 1.68968,5.50714 -1.681,3.29858 -2.44916,-1.60475 -2.5276,-1.59612 -1.77881,0.19567 1.55913,3.73082 1.73718,6.41524 0.52258,7.87875 -1.57271,1.89499 -2.23043,21.48426 -0.78049,23.24569 1.74216,2.11643 3.85769,1.41166 7.90171,-2.63235 z m -5.6715,-3.20478 c -0.36954,-0.59793 -0.27983,-1.47919 0.19934,-1.95836 1.18268,-1.18268 3.78562,0.53891 2.92361,1.93369 -0.87355,1.41342 -2.25789,1.42436 -3.12295,0.0247 z m 2.55385,-9.41287 c 0,-0.825 0.675,-1.5 1.5,-1.5 0.825,0 1.5,0.675 1.5,1.5 0,0.825 -0.675,1.5 -1.5,1.5 -0.825,0 -1.5,-0.675 -1.5,-1.5 z m 5,-7.94098 c 0,-0.79254 0.39901,-1.68759 0.88669,-1.98899 1.10115,-0.68055 3.3423,1.86765 2.43797,2.77198 -1.18977,1.18977 -3.32466,0.68698 -3.32466,-0.78299 z m 5.44615,-11.64615 c -1.03052,-1.66742 1.28721,-3.57951 2.66672,-2.2 1.15392,1.15392 0.43172,3.28713 -1.11287,3.28713 -0.48508,0 -1.18431,-0.48921 -1.55385,-1.08713 z m 9.05385,-4.91287 c -0.81551,-1.31952 0.38021,-3.19207 1.5691,-2.45729 1.21461,0.75067 1.20672,3.45729 -0.0101,3.45729 -0.51754,0 -1.2191,-0.45 -1.55902,-1 z m -5.5,-8.5 c 0,-0.825 0.675,-1.5 1.5,-1.5 0.825,0 1.5,0.675 1.5,1.5 0,0.825 -0.675,1.5 -1.5,1.5 -0.825,0 -1.5,-0.675 -1.5,-1.5 z m 6.65066,-4.96797 c -0.70524,-1.83785 1.16969,-3.11169 2.54934,-1.73203 1.06741,1.06741 0.29966,3.2 -1.15203,3.2 -0.4587,0 -1.08748,-0.66059 -1.39731,-1.46797 z m -7.65066,-6.94871 c 0,-0.87083 0.7125,-1.58333 1.58333,-1.58333 0.87084,0 1.40521,0.53437 1.1875,1.1875 -0.61807,1.85422 -2.77083,2.16176 -2.77083,0.39583 z m 10.69385,-1.22281 c -0.93324,-0.93324 0.19452,-2.36052 1.86517,-2.36052 0.79254,0 1.44098,0.675 1.44098,1.5 0,1.50623 -2.11099,2.05568 -3.30615,0.86052 z m -3.69385,-9.8015 c 0,-0.79254 0.39901,-1.68759 0.88669,-1.98899 1.10115,-0.68055 3.3423,1.86765 2.43797,2.77198 -1.18977,1.18977 -3.32466,0.68698 -3.32466,-0.78299 z m 7.19037,-8.30902 c 0.18536,-0.9625 0.99969,-1.75 1.80963,-1.75 0.80994,0 1.62427,0.7875 1.80963,1.75 0.23646,1.22785 -0.30348,1.75 -1.80963,1.75 -1.50615,0 -2.04609,-0.52215 -1.80963,-1.75 z m -36.19037,65.27896 c 0,-6.90579 -2.7687,-19.54191 -5.48018,-25.01112 -4.09323,-8.25627 -13.49052,-16.93007 -24.26982,-22.40132 -4.89924,-2.4867 -5.66561,-5.10864 -1.5,-5.13183 3.97846,-0.0222 5.93566,-1.45359 4.44437,-3.25048 -0.64736,-0.78003 -0.88092,-1.71432 -0.51903,-2.07622 1.26902,-1.26902 2.32466,-0.63881 2.32466,1.38779 0,1.96721 0.3937,2.02263 10.25,1.44279 19.98854,-1.17589 28.38348,-3.50957 39.25,-10.91096 7.42427,-5.056806 15.39187,-16.668056 9.25,-13.480106 -4.19633,2.17812 -4.88069,3.0401 -3.61983,4.55934 1.68277,2.02762 0.23651,2.87736 -2.45009,1.43953 -1.93409,-1.03509 -3.33881,-0.89571 -8.50169,0.84353 -3.40162,1.14593 -11.24583,2.94146 -17.43158,3.990076 -13.2079,2.23901 -28.26604,7.63885 -40.74681,14.61176 -3.58991,2.00565 -4.8573,3.46914 -6.26665,7.23619 -2.03408,5.43692 -3.10096,3.98186 9.21694,12.57037 7.99956,5.5776 28.01699,27.5276 32.21994,35.3306 1.23799,2.29838 2.60613,3.95933 3.04033,3.69098 0.43419,-0.26835 0.78944,-2.44676 0.78944,-4.84092 z m -5.30615,-11.16843 c -0.79893,-0.79893 0.10419,-2.36052 1.36517,-2.36052 0.51754,0 0.94098,0.675 0.94098,1.5 0,1.54641 -1.17996,1.9867 -2.30615,0.86052 z m -3.69385,-6.36052 c 0,-1.92166 1.95562,-2.71105 3.32466,-1.34201 0.75703,0.75703 -1.13576,3.34201 -2.4471,3.34201 -0.48266,0 -0.87756,-0.9 -0.87756,-2 z m -4.5,-5 c -0.7292,-1.17987 0.21667,-3 1.55902,-3 0.51754,0 0.94098,0.9 0.94098,2 0,2.10908 -1.45488,2.69104 -2.5,1 z m -5.05385,-5.08713 c -1.03052,-1.66742 1.28721,-3.57951 2.66672,-2.2 1.15392,1.15392 0.43172,3.28713 -1.11287,3.28713 -0.48508,0 -1.18431,-0.48921 -1.55385,-1.08713 z m -6,-5 c -1.03052,-1.66742 1.28721,-3.57951 2.66672,-2.2 1.15392,1.15392 0.43172,3.28713 -1.11287,3.28713 -0.48508,0 -1.18431,-0.48921 -1.55385,-1.08713 z m -6.91353,-3.86008 c -0.87924,-1.42264 0.24199,-3.05279 2.09972,-3.05279 0.87615,0 1.37805,0.70256 1.19098,1.66713 -0.38952,2.00847 -2.38616,2.84922 -3.2907,1.38566 z m -4.53262,-5.5528 c 0,-0.825 0.675,-1.5 1.5,-1.5 0.825,0 1.5,0.675 1.5,1.5 0,0.82501 -0.675,1.50001 -1.5,1.50001 -0.825,0 -1.5,-0.675 -1.5,-1.50001 z m -4.68357,-3.11778 c -0.62635,-1.63225 1.46814,-3.6334 2.88582,-2.75722 1.34146,0.82906 0.88821,3.12631 -0.7401,3.75115 -0.89873,0.34487 -1.79049,-0.0682 -2.14572,-0.99393 z m 20.39409,-12.00503 c -1.05712,-1.05712 0.24702,-2.37719 2.3485,-2.37719 1.06754,0 1.94098,-0.45 1.94098,-1 0,-0.55 0.675,-1 1.5,-1 0.825,0 1.5,0.675 1.5,1.5 0,0.89855 -0.92222,1.5 -2.3,1.5 -1.265,0 -2.7575,0.4575 -3.31667,1.01667 -0.55916,0.55916 -1.31193,0.7214 -1.67281,0.36052 z m 10.75844,-3.42741 c -0.95021,-1.53748 0.35135,-2.52947 1.63484,-1.24598 0.71818,0.71818 0.73543,1.27752 0.0524,1.69964 -0.55992,0.34605 -1.31919,0.1419 -1.68727,-0.45366 z m 5.98992,-1.01631 c -0.92034,-1.48915 0.14673,-2.29879 2.06137,-1.56407 0.88358,0.33906 1.32643,1.06965 0.98412,1.62354 -0.81058,1.31154 -2.21511,1.28411 -3.04549,-0.0595 z m 7.73279,-1.00847 c 0.19708,-0.59125 0.78583,-1.075 1.30833,-1.075 0.5225,0 1.11125,0.48375 1.30833,1.075 0.19709,0.59125 -0.39166,1.075 -1.30833,1.075 -0.91667,0 -1.50542,-0.48375 -1.30833,-1.075 z m 5.80833,-1.425 c 0,-0.91667 0.48375,-1.50542 1.075,-1.30833 0.59125,0.19708 1.075,0.78583 1.075,1.30833 0,0.5225 -0.48375,1.11125 -1.075,1.30833 -0.59125,0.19709 -1.075,-0.39166 -1.075,-1.30833 z m 6,-2.5 c 0,-0.55 0.45,-1 1,-1 0.55,0 1,0.45 1,1 0,0.55 -0.45,1 -1,1 -0.55,0 -1,-0.45 -1,-1 z m 5.6875,-0.64583 c -1.37384,-1.37385 -0.66124,-3.495756 1.0625,-3.163796 0.9625,0.18536 1.75,0.968359 1.75,1.739986 0,1.57886 -1.76429,2.47201 -2.8125,1.42381 z M 69.108482,135.31877 c 11.80608,-2.58758 13.07372,-3.12154 9.23941,-3.89188 -5.31289,-1.06741 -3.71006,-3.5198 2.67227,-4.0887 3.11975,-0.27809 5.961,-0.79433 6.31388,-1.14722 0.35288,-0.35288 -2.31214,-1.62455 -5.92227,-2.82592 -3.97361,-1.32233 -6.56388,-2.74409 -6.56388,-3.60279 0,-1.80852 1.41503,-1.78314 9.00588,0.16155 3.39208,0.86901 6.37284,1.37459 6.62391,1.12352 0.25108,-0.25107 -3.61292,-2.55827 -8.58665,-5.1271 -4.97372,-2.56883 -9.04314,-5.07285 -9.04314,-5.5645 0,-1.84048 1.71477,-1.81913 5.94315,0.074 2.39505,1.0723 4.52407,1.78021 4.73114,1.57313 0.20708,-0.20707 -1.65993,-2.0452 -4.14889,-4.08472 -3.9712,-3.25413 -5.89983,-6.57435 -3.81884,-6.57435 0.3886,0 3.27263,1.8 6.40894,4 3.13632,2.2 6.02258,4 6.41391,4 0.39133,0 -0.91769,-1.98823 -2.90895,-4.4183 -1.99125,-2.43006 -3.62046,-4.90506 -3.62046,-5.499997 0,-1.608419 2.56702,-1.308339 4.04531,0.4729 0.70961,0.855017 2.12921,2.003607 3.15465,2.552417 1.64764,0.88179 1.78996,0.701 1.22384,-1.5546 -0.82384,-3.282426 0.25062,-3.227756 3.88289,0.19758 l 2.91614,2.75 -0.69087,-3.25 c -1.12839,-5.308186 1.83975,-4.024976 5.438168,2.35107 1.73858,3.0806 3.39248,5.36964 3.67536,5.08677 0.28287,-0.28287 -0.20044,-1.60515 -1.07401,-2.9384 -0.87358,-1.33325 -2.97513,-6.434786 -4.670118,-11.336756 -4.00523,-11.58329 -4.98752,-24.62649 -2.43367,-32.31539 2.12587,-6.4004 1.52676,-9.03522 -3.06942,-13.49897 -4.55892,-4.42757 -8.35349,-5.32856 -12.3927,-2.94254 -5.43975,3.21334 -10.8552,12.88816 -9.07549,16.21358 0.5117,0.95612 0.55718,2.34223 0.10107,3.08024 -1.13891,1.84279 -4.19555,0.49637 -3.82806,-1.68622 0.48835,-2.90038 -3.78511,-2.83093 -5.70071,0.0926 -1.34797,2.05726 -1.43609,3.17645 -0.51844,6.58434 1.27407,4.73153 0.95866,5.52084 -3.03043,7.58368 -5.514622,2.85172 -7.650642,10.95619 -4.253922,16.14023 1.68089,2.56537 1.6589,2.62653 -2,5.56181 -4.65675,3.735766 -5.00107,7.806036 -1.0125,11.969196 l 2.68709,2.80472 -2.76728,2.88842 c -1.74677,1.82324 -2.97114,4.4083 -3.32008,7.00986 -0.523,3.89924 -0.28376,4.3905 4.43733,9.11159 2.74457,2.74457 5.284192,4.99014 5.643582,4.99014 0.35939,0 4.81118,-0.91127 9.89286,-2.02504 z M 54.24143,128.92696 c -0.82768,-2.15691 0.32393,-4.84401 1.85699,-4.33299 0.68721,0.22907 1.24947,1.46649 1.24947,2.74982 0,2.74084 -2.22675,3.87567 -3.10646,1.58317 z m 12.606462,-4.52415 c 0,-1.06754 0.35899,-2.16285 0.79775,-2.43402 1.4249,-0.88064 3.51067,1.12888 2.87935,2.77408 -0.86709,2.2596 -3.6771,1.99973 -3.6771,-0.34006 z m -3.3125,-8.70485 c -1.47104,-1.47104 -0.69742,-4.50273 1.0625,-4.1638 0.9625,0.18536 1.75,1.19336 1.75,2.23999 0,1.98954 -1.63108,3.10523 -2.8125,1.92381 z m -8.687502,-8.1875 c 0,-2.35918 0.84053,-3.16509 2.59777,-2.49078 2.212122,0.84887 1.731702,4.32411 -0.59777,4.32411 -1.27273,0 -2,-0.66667 -2,-1.83333 z m 9.335832,-6.73389 c -0.83346,-2.171956 1.28244,-4.214506 2.79695,-2.699996 1.28004,1.280039 0.48705,4.267216 -1.13278,4.267216 -0.58452,0 -1.3334,-0.70525 -1.66417,-1.56722 z m -3,-8.999996 c -0.78813,-2.05384 0.79372,-3.58878 2.56825,-2.49206 1.51127,0.93402 0.81522,4.05928 -0.90408,4.05928 -0.58452,0 -1.3334,-0.70525 -1.66417,-1.56722 z m 16.25721,-2.05091 c -0.36223,-0.94397 -0.2241,-2.15081 0.30696,-2.68187 1.44505,-1.44505 4.29697,0.0387 3.91242,2.03549 -0.45065,2.34007 -3.39629,2.79132 -4.21938,0.64638 z m 12.78696,-2.83398 c -0.70371,-1.83386 0.32049,-3.54789 2.12,-3.54789 2.05808,0 2.83785,1.88799 1.46365,3.5438 -1.53843,1.85369 -2.8733,1.85521 -3.58365,0.004 z m -19.01581,-1.0412 c -0.34636,-0.90262 -0.15025,-2.12063 0.43581,-2.70669 1.52361,-1.52361 4.41041,-0.13109 4.01242,1.93549 -0.4433,2.30188 -3.64766,2.85743 -4.44823,0.7712 z M 56.84789,84.343794 c 0,-1.50615 0.52215,-2.04609 1.75,-1.80963 0.962502,0.18536 1.750002,0.99969 1.750002,1.80963 0,0.80994 -0.7875,1.62427 -1.750002,1.80963 -1.22785,0.23646 -1.75,-0.30348 -1.75,-1.80963 z m 28.000002,-7.03138 c 0,-2.41802 2.86012,-3.81299 4.0084,-1.95502 1.17533,1.90172 0.0691,3.9864 -2.11539,3.9864 -1.23609,0 -1.89301,-0.70494 -1.89301,-2.03138 z m -16.3125,-0.61445 c -1.41552,-1.41552 -0.61453,-3.35417 1.38582,-3.35417 1.39797,0 1.96801,0.54305 1.75,1.66713 -0.35694,1.84048 -2.064,2.75886 -3.13582,1.68704 z m 20.64186,-6.93825 c -0.71657,-1.86736 1.06102,-3.91072 2.58351,-2.96977 1.58774,0.98128 1.32783,3.24751 -0.45072,3.93 -0.89117,0.34197 -1.78803,-0.0618 -2.13279,-0.96023 z m -11.64186,-0.0618 c -1.37384,-1.37385 -0.66124,-3.49576 1.0625,-3.1638 0.9625,0.18536 1.75,0.96836 1.75,1.73999 0,1.57886 -1.76429,2.47201 -2.8125,1.42381 z m 10.35909,-8.79803 c -1.36964,-1.65027 -0.61643,-3.55609 1.40544,-3.55609 1.91056,0 2.66669,2.65658 1.12121,3.93922 -0.96166,0.7981 -1.63051,0.6967 -2.52665,-0.38308 z m -8.87371,-1.21533 c 0.19498,-1.01244 1.02335,-1.84081 1.84082,-1.84081 2.1435,0 1.8339,2.90567 -0.35451,3.32712 -1.3364,0.25736 -1.74367,-0.14991 -1.48631,-1.48631 z m 57.469838,63.081686 c 2.2484,-3.43148 0.93863,-7.1141 -3.62373,-10.18868 -4.4512,-2.99966 -8.65013,-2.63675 -11.33834,0.97996 -1.96938,2.64961 -1.97456,2.80807 -0.21876,6.70173 1.94436,4.31181 2.84011,4.79217 9.26505,4.96849 3.50743,0.0962 4.51442,-0.32275 5.91578,-2.4615 z m -11.64273,-5.42245 c 0,-1.64634 0.51831,-2.06549 2.25,-1.81955 1.2375,0.17575 2.25,0.99455 2.25,1.81955 0,0.825 -1.0125,1.6438 -2.25,1.81955 -1.73169,0.24594 -2.25,-0.17321 -2.25,-1.81955 z m 21.12021,-9.28149 c 5.24683,-14.703146 6.06164,-33.945396 1.90422,-44.969436 -1.93524,-5.13158 -2.41853,-5.68826 -4.48753,-5.16897 -3.01838,0.75756 -4.18737,-1.16161 -1.56304,-2.56611 l 2.02987,-1.08635 -1.98757,-3.89597 c -3.34057,-6.54805 -4.12656,-5.96611 -3.56691,2.64086 1.83773,28.26256 1.74409,32.06444 -1.07032,43.45697 l -2.69076,10.892006 2.90592,2.98554 c 4.08635,4.19832 6.43636,3.56754 8.52612,-2.28854 z m -6.87021,-0.96851 c 0.22917,-0.6875 1.01667,-1.25 1.75,-1.25 0.73333,0 1.52083,0.5625 1.75,1.25 0.24786,0.74359 -0.46111,1.25 -1.75,1.25 -1.28889,0 -1.99786,-0.50641 -1.75,-1.25 z m 2.40515,-5.5 c -0.64881,-1.05126 -0.12548,-6.679966 0.75327,-8.101826 1.33303,-2.15689 2.49648,-0.14484 2.09888,3.62975 -0.21564,2.04714 -0.418,4.059576 -0.44968,4.472076 -0.0317,0.4125 -0.48106,0.75 -0.9986,0.75 -0.51754,0 -1.14928,-0.3375 -1.40387,-0.75 z m -0.209,-13.337126 c -1.03052,-1.66742 1.28721,-3.57951 2.66672,-2.2 1.15393,1.15392 0.43172,3.28713 -1.11287,3.28713 -0.48508,0 -1.18431,-0.48921 -1.55385,-1.08713 z m 1.21184,-6.58821 c -1.36904,-1.36904 -0.57965,-3.32466 1.34201,-3.32466 1.10001,0 2.00001,0.3949 2.00001,0.87756 0,1.31134 -2.58499,3.20413 -3.34202,2.4471 z m -0.48732,-9.97236 c 0.19376,-1.00613 1.1755,-1.98787 2.18163,-2.18163 1.32109,-0.25442 1.73146,0.15595 1.47704,1.47703 -0.19376,1.00613 -1.17551,1.98787 -2.18164,2.18163 -1.32108,0.25442 -1.73145,-0.15595 -1.47703,-1.47703 z m -0.69774,-6.3961 c -0.35481,-0.5741 -0.0967,-1.70465 0.57366,-2.51234 0.93116,-1.12197 1.54435,-1.19832 2.59842,-0.32351 1.04351,0.86602 1.10317,1.47816 0.24488,2.51233 -1.35601,1.63388 -2.53795,1.74579 -3.41696,0.32352 z m -20.96118,40.062816 c -0.53106,-0.85928 -1.04177,-0.889 -1.82462,-0.10615 -1.46135,1.46135 -4.95467,1.38976 -4.46094,-0.0914 0.30398,-0.91194 3.52229,-3.32144 4.43637,-3.32144 0.0894,0 -0.91148,-3.149996 -2.22419,-6.999996 -2.80991,-8.24112 -2.98227,-13.51014 -0.89793,-27.4501 0.84723,-5.6663 1.25725,-10.58306 0.91113,-10.92613 -0.34611,-0.34307 -1.78557,-0.62377 -3.1988,-0.62377 -3.19056,0 -4.22839,-2.43211 -1.35813,-3.1827 2.24247,-0.58642 2.73436,-1.81052 1.12678,-2.80406 -1.84442,-1.13992 -7.07937,3.90587 -9.80033,9.4462 -2.34914,4.78323 -2.70841,6.70241 -2.62838,14.04056 0.11574,10.61265 4.42109,24.18492 10.52147,33.168136 l 4.11687,6.06235 3.00909,-3.0091 c 1.77676,-1.77675 2.70707,-3.49779 2.27161,-4.20237 z m -9.33887,-7.678206 c 0.19498,-1.01244 1.02335,-1.84081 1.84082,-1.84081 2.1435,0 1.8339,2.90567 -0.35451,3.32712 -1.3364,0.257359 -1.74367,-0.14991 -1.48631,-1.48631 z m -1.48538,-3.98664 c -1.41552,-1.41552 -0.61453,-3.35417 1.38582,-3.35417 1.39797,0 1.96801,0.54305 1.75,1.66713 -0.35694,1.84048 -2.064,2.75886 -3.13582,1.68704 z m -1.66745,-6.83001 c -1.01598,-1.22418 -0.93596,-1.6192 0.43454,-2.14511 2.33785,-0.89712 4.02197,0.98055 2.22047,2.47566 -1.09414,0.90806 -1.68846,0.83407 -2.65501,-0.33055 z m -0.48743,-6.47137 c -0.87924,-1.42264 0.24199,-3.05279 2.09972,-3.05279 0.87615,0 1.37805,0.70256 1.19098,1.66713 -0.38952,2.00847 -2.38616,2.84922 -3.2907,1.38566 z m 0.12537,-5.72813 c -0.36189,-0.3619 -0.65799,-1.25799 -0.65799,-1.99133 0,-1.4897 2.57786,-1.82538 3.42997,-0.44664 0.68055,1.10115 -1.86765,3.3423 -2.77198,2.43797 z m -1.32216,-6.89188 c -0.83346,-2.17196 1.28244,-4.21451 2.79695,-2.7 1.28004,1.28004 0.48705,4.26722 -1.13278,4.26722 -0.58452,0 -1.3334,-0.70525 -1.66417,-1.56722 z m 1.80982,-5.68713 c -0.79742,-0.79742 -0.79726,-1.46051 5.9e-4,-2.42186 1.61293,-1.94346 3.85376,-1.61248 3.85376,0.56922 0,2.27091 -2.32064,3.38635 -3.85435,1.85264 z m 90.79047,32.61901 c 10.78574,-2.68718 16.57465,-5.7066 19.99601,-10.42965 1.68733,-2.3293 3.06788,-5.04101 3.06788,-6.02603 0,-0.98502 0.45,-2.06906 1,-2.40898 1.62065,-1.00162 1.10098,-7.82043 -0.77224,-10.13296 -2.93623,-3.62484 -6.01378,-4.58203 -13.54783,-4.21369 l -7.09037,0.34665 -0.67886,-3.30075 c -0.90902,-4.41982 -1.19265,-4.61018 -7.73843,-5.19365 -6.11484,-0.54505 -5.89661,-0.2038 -4.51647,-7.06248 0.68265,-3.39246 -1.65837,-5.23517 -7.50787,-5.90974 -3.60311,-0.41552 -4.70666,-0.97532 -4.99413,-2.53338 -0.6376,-3.45566 -2.25574,-4.5 -6.97249,-4.5 -3.29485,0 -5.62102,0.72572 -8.31884,2.59531 -3.95188,2.73865 -5.86247,2.53687 -5.86247,-0.61914 0,-2.43813 -3.49032,-4.32091 -6.57495,-3.54671 -2.61969,0.6575 -5.41343,5.15732 -5.44542,8.77088 -0.0112,1.26481 2.01809,6.34966 4.50951,11.29966 6.25428,12.42606 7.86093,19.52346 7.29584,32.22939 -0.37594,8.45282 -0.22281,10.04894 0.87658,9.13653 1.94242,-1.61207 5.33844,-13.36244 5.33844,-18.47126 0,-3.2397 0.39422,-4.39466 1.5,-4.39466 1.55154,0 1.99833,2.54894 1.55399,8.86549 -0.15639,2.22306 0.13372,3.13653 0.85463,2.69099 0.60026,-0.37098 1.09138,-1.74366 1.09138,-3.0504 0,-3.19587 1.70848,-7.50608 2.97525,-7.50608 0.56744,0 1.02475,2.3057 1.02475,5.16667 0,5.48535 0.82171,5.66829 2.56889,0.57193 0.5879,-1.71482 1.6004,-3.29503 2.25,-3.51156 1.67278,-0.5576 1.47955,3.54081 -0.43136,9.14902 -0.88686,2.60278 -1.37718,4.96763 -1.0896,5.25521 0.28758,0.28758 2.40958,-2.25543 4.71555,-5.65112 2.95013,-4.34426 4.50644,-5.86023 5.25139,-5.11528 0.74496,0.74496 0.28406,2.55184 -1.5552,6.09692 -1.43765,2.77102 -2.2237,5.03821 -1.74678,5.03821 0.47693,0 2.64961,-2.025 4.82819,-4.5 2.17859,-2.475 4.46683,-4.5 5.08499,-4.5 2.31236,0 0.97064,2.864 -4.00601,8.5511 -2.96332,3.38634 -4.62805,6.02957 -3.9416,6.25839 0.65359,0.21786 3.63014,-1.22515 6.61456,-3.20669 6.21265,-4.12496 6.45698,-4.19783 6.45698,-1.92563 0,0.92245 -1.4625,2.92916 -3.25,4.45936 -3.98532,3.41166 -2.55752,3.65568 7.18611,1.22813 z m 14.75139,-12.01049 c -1.41552,-1.41552 -0.61453,-3.35417 1.38582,-3.35417 1.39797,0 1.96801,0.54305 1.75,1.66713 -0.35694,1.84048 -2.064,2.75886 -3.13582,1.68704 z m -11.14479,-2.28507 c -0.31644,-0.512 -0.11799,-1.21356 0.44098,-1.55902 1.19337,-0.73755 3.01631,0.19857 3.01631,1.54894 0,1.2168 -2.70662,1.22469 -3.45729,0.0101 z m 14.14479,-3.71493 c -1.37384,-1.37385 -0.66124,-3.49576 1.0625,-3.1638 0.9625,0.18536 1.75,0.96836 1.75,1.73999 0,1.57886 -1.76429,2.47201 -2.8125,1.42381 z m -17.99365,-3.99365 c -0.93324,-0.93324 0.19452,-2.36052 1.86517,-2.36052 0.79254,0 1.44098,0.675 1.44098,1.5 0,1.50623 -2.11099,2.05568 -3.30615,0.86052 z m 10.48283,-2.91334 c 0.45227,-2.17211 2.22702,-2.30502 2.63295,-0.19718 0.2108,1.0946 -0.27967,1.75 -1.30963,1.75 -0.96073,0 -1.51197,-0.64684 -1.32332,-1.55282 z m -17.17668,-4.0205 c 0,-0.93124 0.68037,-1.44138 1.66713,-1.25 2.50877,0.48655 2.85325,2.82332 0.4162,2.82332 -1.22833,0 -2.08333,-0.64569 -2.08333,-1.57332 z m -11.48992,-5.41037 c -0.73755,-1.19337 0.19857,-3.01631 1.54894,-3.01631 1.2168,0 1.22469,2.70662 0.0101,3.45729 -0.512,0.31644 -1.21356,0.11799 -1.55902,-0.44098 z m 7.71909,-0.20381 c 0.61807,-1.85422 2.77083,-2.16176 2.77083,-0.39583 0,0.87083 -0.7125,1.58333 -1.58333,1.58333 -0.87084,0 -1.40521,-0.53438 -1.1875,-1.1875 z m -27.65914,-3.69919 c -0.68055,-1.10115 1.86765,-3.3423 2.77198,-2.43797 0.36189,0.3619 0.65799,1.25799 0.65799,1.99133 0,1.4897 -2.57786,1.82538 -3.42997,0.44664 z m 9.02653,-0.95708 c -0.34605,-0.55992 -0.1419,-1.31919 0.45366,-1.68727 1.53748,-0.95021 2.52947,0.35135 1.24598,1.63484 -0.71818,0.71818 -1.27752,0.73543 -1.69964,0.0524 z m 6.84959,-4.24336 c -1.03052,-1.66742 1.28721,-3.57951 2.66672,-2.2 1.15392,1.15392 0.43172,3.28713 -1.11287,3.28713 -0.48508,0 -1.18431,-0.48921 -1.55385,-1.08713 z m -20,-2 c -1.03052,-1.66742 1.28721,-3.57951 2.66672,-2.2 1.15392,1.15392 0.43172,3.28713 -1.11287,3.28713 -0.48508,0 -1.18431,-0.48921 -1.55385,-1.08713 z m 11.05385,-1.91287 c -0.39915,-0.64585 -0.27574,-1.62426 0.27426,-2.17426 0.66667,-0.66667 1.24192,-0.60858 1.72574,0.17426 0.39915,0.64585 0.27574,1.62426 -0.27426,2.17426 -0.66667,0.66667 -1.24192,0.60858 -1.72574,-0.17426 z m -17.8125,-5.64583 c -1.37384,-1.37385 -0.66124,-3.49576 1.0625,-3.1638 0.9625,0.18536 1.75,0.96836 1.75,1.73999 0,1.57886 -1.76429,2.47201 -2.8125,1.42381 z"
       style="fill:#ab2121;stroke-width:6;stroke-miterlimit:4;stroke-dasharray:none;fill-opacity:1"
       sodipodi:nodetypes="ssssssscssssssssssssssssscscsssssssssssssssssssssssssssscssssssssssssssscsssssssscssscscsscssssssssssssssssssssssssssssssssssssssssssssssssssssssssssscsscsssssssssssssssssssssscscccssssssssssssssssscsssssssssssssssssssssssssssssssssssssssssssssssssssssssssssssssssssssssssssssssscssssssscssssssssssssssssssssssscssssscccssccssssssssssssscssccssssscsscsssssssssssssssssssscssssssssssssssssssssssssssssssssssssssssssssssssssssssssscsccccsccccscscscscsssssssssscsscssscssscsssssssssscsscsssssssssssssscssssccsssssssssssssssssssssssssssscsscccsscssssssssssssssssssssscssccsssssssscsssssssssscssscsssssssssscssssssssssssssssccsscssssscsssssscsccsssssssssssssssssssssssssssssssssscsssssssssssssssssssssssssssssssssssssssscssccsssssssscsscsssscssccsssssssscssccsssssssssssssssss" />
  </g>
</svg>
