<?xml version="1.0" encoding="UTF-8" standalone="no"?>
<!DOCTYPE svg PUBLIC "-//W3C//DTD SVG 20010904//EN"
"http://www.w3.org/TR/2001/REC-SVG-20010904/DTD/svg10.dtd">
<!-- Created with Inkscape (http://www.inkscape.org/) -->
<svg
   id="svg1"
   sodipodi:version="0.32"
   inkscape:version="0.38.1"
   width="48pt"
   height="48pt"
   sodipodi:docbase="/home/dan/svg-icons/lila/gnome/scalable/mimetypes"
   sodipodi:docname="gnome-mime-text-x-makefile.svg"
   xmlns="http://www.w3.org/2000/svg"
   xmlns:inkscape="http://www.inkscape.org/namespaces/inkscape"
   xmlns:sodipodi="http://sodipodi.sourceforge.net/DTD/sodipodi-0.dtd"
   xmlns:xlink="http://www.w3.org/1999/xlink">
  <defs
     id="defs3">
    <linearGradient
       id="linearGradient866">
      <stop
         style="stop-color:#ffffff;stop-opacity:1;"
         offset="0.00000000"
         id="stop867" />
      <stop
         style="stop-color:#d9cce6;stop-opacity:1;"
         offset="1.00000000"
         id="stop868" />
    </linearGradient>
    <linearGradient
       id="linearGradient584">
      <stop
         style="stop-color:#ffffff;stop-opacity:1;"
         offset="0.00000000"
         id="stop585" />
      <stop
         style="stop-color:#ffffff;stop-opacity:0;"
         offset="1.00000000"
         id="stop586" />
    </linearGradient>
    <linearGradient
       id="linearGradient578">
      <stop
         style="stop-color:#d9cce6;stop-opacity:1;"
         offset="0.00000000"
         id="stop579" />
      <stop
         style="stop-color:#73667f;stop-opacity:1;"
         offset="1.00000000"
         id="stop580" />
    </linearGradient>
    <linearGradient
       xlink:href="#linearGradient866"
       id="linearGradient581"
       x1="0.02631579"
       y1="0.07031250"
       x2="0.98245615"
       y2="0.96093750" />
    <linearGradient
       xlink:href="#linearGradient584"
       id="linearGradient583"
       x1="0.01094890"
       y1="0.01030928"
       x2="1.01459849"
       y2="0.96907216" />
    <linearGradient
       xlink:href="#linearGradient584"
       id="linearGradient860"
       x1="0.02380952"
       y1="0.04687500"
       x2="1.00793648"
       y2="0.99218750" />
    <linearGradient
       xlink:href="#linearGradient584"
       id="linearGradient861"
       x1="0.04069768"
       y1="0.04687500"
       x2="0.99418604"
       y2="0.96875000" />
    <linearGradient
       xlink:href="#linearGradient584"
       id="linearGradient862"
       x1="0.01824817"
       y1="0.02542373"
       x2="0.98540145"
       y2="0.94915253" />
    <linearGradient
       xlink:href="#linearGradient584"
       id="linearGradient869"
       x1="0.06481481"
       y1="0.04687500"
       x2="0.95370370"
       y2="0.94531250" />
    <radialGradient
       xlink:href="#linearGradient584"
       id="radialGradient975"
       cx="0.50000000"
       cy="0.50000000"
       r="0.50000000"
       fx="0.50000000"
       fy="0.50000000" />
    <linearGradient
       xlink:href="#linearGradient584"
       id="linearGradient983"
       x1="0.00000000"
       y1="0.04687500"
       x2="0.99462366"
       y2="1.00000000" />
    <linearGradient
       xlink:href="#linearGradient578"
       id="linearGradient984"
       x1="0.05303030"
       y1="0.05468750"
       x2="0.96212119"
       y2="0.96875000" />
    <linearGradient
       xlink:href="#linearGradient578"
       id="linearGradient878"
       x1="2.3418767e-17"
       y1="0.50000000"
       x2="1.0000000"
       y2="0.50000000" />
    <linearGradient
       xlink:href="#linearGradient584"
       id="linearGradient893"
       x1="-6.9666495e-15"
       y1="0.015625000"
       x2="0.96103895"
       y2="0.89843750" />
    <linearGradient
       xlink:href="#linearGradient584"
       id="linearGradient874"
       x1="0.0083333338"
       y1="0.015625000"
       x2="0.95833331"
       y2="0.97656250" />
  </defs>
  <sodipodi:namedview
     id="base"
     pagecolor="#ffffff"
     bordercolor="#666666"
     borderopacity="1.0"
     inkscape:pageopacity="0.0"
     inkscape:pageshadow="2"
     inkscape:zoom="7.6643186"
     inkscape:cx="24.544494"
     inkscape:cy="24.765271"
     inkscape:window-width="698"
     inkscape:window-height="658"
     inkscape:window-x="112"
     inkscape:window-y="35"
     showgrid="false"
     snaptogrid="false"
     gridspacingy="0.25000000mm"
     gridspacingx="0.25000000mm"
     gridcolor="#ff56fb"
     gridhicolor="0.18431373" />
  <path
     d="M 4.4389304 48.086315 C 5.2483181 50.50443 38.765774 61.377487 40.966438 59.55288 C 42.936267 57.902492 57.675565 8.7785888 56.688667 6.8303779 C 55.662821 4.6824777 21.657054 -0.6675724 20.042945 0.80153134 C 18.054709 2.621752 3.5888672 45.311841 4.4389304 48.086315 z "
     style="font-size:12;opacity:0.302675;fill-rule:evenodd;stroke-width:12.5;"
     id="path639" />
  <path
     d="M 4.5541516 46.08493 C 5.3114351 48.34726 36.66955 58.519843 38.728432 56.812781 C 40.571358 55.268717 54.36111 9.3095333 53.437795 7.4867937 C 52.478034 5.477268 20.663028 0.47192513 19.152904 1.8463842 C 17.292759 3.5493405 3.7588508 43.489198 4.5541516 46.08493 z "
     style="font-size:12;fill:url(#linearGradient581);fill-rule:evenodd;stroke:#261933;stroke-width:1.87726;"
     id="path634" />
  <path
     d="M 6.6876568 43.965773 C 6.360392 43.13667 19.363758 4.5872629 20.579427 3.7922731 C 22.09876 2.7554118 46.659814 7.3454032 46.98631 8.172561 C 47.28557 8.9306762 27.823671 5.3906629 23.493845 9.2635774 C 15.189619 16.482895 6.9861475 44.721984 6.6876568 43.965773 z "
     style="font-size:12;opacity:0.699936;fill:url(#linearGradient583);fill-rule:evenodd;stroke:none;stroke-width:0.100121pt;"
     id="path640" />
  <path
     style="fill:none;fill-opacity:0.75000000;fill-rule:evenodd;stroke:#261933;stroke-width:1.2500000;stroke-dasharray:none;stroke-opacity:0.30000001;"
     d="M 45.158122,9.0018325 C 43.384215,7.9343573 43.675576,10.762147 42.034780,10.518613 C 40.393992,10.275083 41.512035,7.6468158 39.503701,8.1496970 C 37.495371,8.6525772 39.721346,10.459678 38.400166,11.439362 C 37.078983,12.419047 35.982588,9.7902255 34.918068,11.565922 C 33.853562,13.341617 36.718100,13.040892 36.474926,14.679227 C 36.231763,16.317555 33.570562,15.199482 34.073443,17.207814 C 34.576327,19.216142 36.376575,16.980949 37.363106,18.311348 C 38.349629,19.641755 35.721965,20.722313 37.489668,21.793447 C 39.257366,22.864586 38.954689,20.005583 40.595464,20.249117 C 42.236254,20.492649 41.120581,23.125871 43.139070,22.625543 C 45.157552,22.125212 42.902964,20.329250 44.242606,19.335880 C 45.582241,18.342524 46.651498,20.992806 47.717192,19.221848 C 48.782879,17.450897 45.942232,17.761893 46.185392,16.123563 C 46.428554,14.485237 49.044661,15.593302 48.541779,13.584974 C 48.038901,11.576643 46.258681,13.806828 45.272154,12.476422 C 44.285631,11.146014 46.932047,10.069311 45.158122,9.0018325 z M 42.854822,12.815520 C 43.476314,13.188099 43.947339,13.819277 44.160696,14.671339 C 44.587404,16.375463 43.731771,17.802728 42.027647,18.229439 C 40.323521,18.656147 38.896257,17.800515 38.469549,16.096392 C 38.042839,14.392266 38.898471,12.965000 40.602597,12.538292 C 41.454658,12.324937 42.233328,12.442940 42.854822,12.815520 z "
     id="path892" />
  <path
     style="fill:url(#linearGradient878);fill-opacity:0.75000000;fill-rule:evenodd;stroke:#261933;"
     d="M 44.464135,8.2792063 C 42.690228,7.2117309 42.981589,10.039520 41.340793,9.7959862 C 39.700005,9.5524565 40.818048,6.9241894 38.809714,7.4270706 C 36.801384,7.9299508 39.027359,9.7370513 37.706179,10.716735 C 36.384996,11.696420 35.288601,9.0675986 34.224081,10.843295 C 33.159575,12.618990 36.024113,12.318265 35.780939,13.956600 C 35.537776,15.594928 32.876575,14.476855 33.379456,16.485187 C 33.882340,18.493515 35.682588,16.258322 36.669119,17.588721 C 37.655642,18.919128 35.027978,19.999686 36.795681,21.070820 C 38.563379,22.141959 38.260702,19.282956 39.901477,19.526490 C 41.542267,19.770022 40.426594,22.403244 42.445083,21.902916 C 44.463565,21.402585 42.208977,19.606623 43.548619,18.613253 C 44.888254,17.619897 45.957511,20.270179 47.023205,18.499221 C 48.088892,16.728270 45.248245,17.039266 45.491405,15.400936 C 45.734567,13.762610 48.350674,14.870675 47.847792,12.862347 C 47.344914,10.854016 45.564694,13.084201 44.578167,11.753795 C 43.591644,10.423387 46.238060,9.3466839 44.464135,8.2792063 z M 42.160835,12.092893 C 42.782327,12.465472 43.253352,13.096650 43.466709,13.948712 C 43.893417,15.652836 43.037784,17.080101 41.333660,17.506812 C 39.629534,17.933520 38.202270,17.077888 37.775562,15.373765 C 37.348852,13.669639 38.204484,12.242373 39.908610,11.815665 C 40.760671,11.602310 41.539341,11.720313 42.160835,12.092893 z "
     id="path877" />
  <path
     style="fill:none;fill-opacity:0.75000000;fill-rule:evenodd;stroke:#261933;stroke-width:1.0000000;stroke-dasharray:none;stroke-dashoffset:0.0000000;stroke-opacity:0.30000001;"
     d="M 23.341059,15.110942 C 21.554661,15.427585 23.073986,18.722472 21.977860,19.235057 C 20.881734,19.747646 19.370569,16.518910 17.957175,17.666559 C 16.543783,18.814198 19.468845,20.837223 18.775860,21.829203 C 18.082883,22.821181 15.184392,20.758991 14.541015,22.491686 C 13.897633,24.224377 17.512073,24.554531 17.407931,25.760097 C 17.303772,26.965669 13.748394,26.680291 14.046054,28.468971 C 14.343705,30.257647 17.528152,28.746290 18.040742,29.842414 C 18.553325,30.938549 15.401059,32.396069 16.560976,33.827915 C 17.720888,35.259741 19.777844,32.277393 20.769824,32.970377 C 21.761801,33.663357 19.768881,36.653352 21.448062,37.270852 C 23.127247,37.888351 23.485962,34.340486 24.691533,34.444629 C 25.897101,34.548787 25.527003,38.019078 27.342124,37.737201 C 29.157233,37.455320 27.624951,34.191309 28.721078,33.678716 C 29.817204,33.166131 31.366475,36.446324 32.761188,35.270320 C 34.155903,34.094324 31.194916,31.987816 31.887896,30.995839 C 32.580874,30.003859 35.490281,32.055413 36.142168,30.356459 C 36.794054,28.657503 33.295012,28.347167 33.399168,27.141600 C 33.503319,25.936025 36.977074,26.301889 36.672310,24.467906 C 36.367555,22.633927 33.062625,24.179567 32.550033,23.083442 C 32.037449,21.987307 35.264764,20.400269 34.122207,19.020227 C 32.979655,17.640197 30.951545,20.531901 29.959562,19.838913 C 28.967587,19.145937 30.955623,16.328571 29.249039,15.664188 C 27.542450,14.999809 27.230904,18.613715 26.024995,18.513513 C 24.819081,18.413335 25.127466,14.794270 23.341059,15.110942 z "
     id="path889"
     sodipodi:nodetypes="ccccccccccccccccccccccccc" />
  <path
     style="fill:none;fill-opacity:0.75000000;fill-rule:evenodd;stroke:#261933;stroke-opacity:0.30000001;stroke-width:1.2500000;stroke-dasharray:none;"
     d="M 26.543653,40.377409 C 25.168866,41.925380 28.002115,42.157728 27.461707,43.726001 C 26.921304,45.294265 24.542749,43.713036 24.668662,45.779541 C 24.794576,47.846041 26.979368,45.989361 27.700050,47.467843 C 28.420736,48.946330 25.635393,49.541855 27.185665,50.914063 C 28.735938,52.286259 28.965823,49.415167 30.531742,49.954771 C 32.097656,50.494361 30.510356,52.905285 32.576858,52.779372 C 34.643357,52.653455 32.776358,50.473708 34.265160,49.747984 C 35.753966,49.022269 36.334135,51.803570 37.711380,50.262370 C 39.088629,48.721174 36.222620,48.494223 36.763024,46.925973 C 37.303430,45.357704 39.687290,46.937514 39.565750,44.861495 C 39.444205,42.785482 37.265114,44.672334 36.534363,43.173192 C 35.803625,41.674059 38.605085,41.109148 37.059686,39.736655 C 35.514294,38.364170 35.298889,41.213659 33.732972,40.674070 C 32.167059,40.134481 33.736249,37.766050 31.669749,37.891965 C 29.603250,38.017875 31.469000,40.177015 29.980191,40.902735 C 28.491384,41.628448 27.918444,38.829421 26.543653,40.377409 z M 29.870070,43.341249 C 30.350340,42.798655 31.057217,42.451414 31.933959,42.397992 C 33.687442,42.291151 34.933517,43.394097 35.040360,45.147581 C 35.147202,46.901065 34.044257,48.147140 32.290773,48.253981 C 30.537287,48.360823 29.291213,47.257877 29.184372,45.504392 C 29.130951,44.627652 29.389799,43.883844 29.870070,43.341249 z "
     id="path891" />
  <path
     style="fill:url(#linearGradient878);fill-opacity:0.75000000;fill-rule:evenodd;stroke:#261933;"
     d="M 25.916521,39.561182 C 24.541734,41.109153 27.374983,41.341501 26.834575,42.909774 C 26.294172,44.478038 23.915617,42.896809 24.041530,44.963314 C 24.167444,47.029814 26.352236,45.173134 27.072918,46.651616 C 27.793604,48.130103 25.008261,48.725628 26.558533,50.097836 C 28.108806,51.470032 28.338691,48.598940 29.904610,49.138544 C 31.470524,49.678134 29.883224,52.089058 31.949726,51.963145 C 34.016225,51.837228 32.149226,49.657481 33.638028,48.931757 C 35.126834,48.206042 35.707003,50.987343 37.084248,49.446143 C 38.461497,47.904947 35.595488,47.677996 36.135892,46.109746 C 36.676298,44.541477 39.060158,46.121287 38.938618,44.045268 C 38.817073,41.969255 36.637982,43.856107 35.907231,42.356965 C 35.176493,40.857832 37.977953,40.292921 36.432554,38.920428 C 34.887162,37.547943 34.671757,40.397432 33.105840,39.857843 C 31.539927,39.318254 33.109117,36.949823 31.042617,37.075738 C 28.976118,37.201648 30.841868,39.360788 29.353059,40.086508 C 27.864252,40.812221 27.291312,38.013194 25.916521,39.561182 z M 29.242938,42.525022 C 29.723208,41.982428 30.430085,41.635187 31.306827,41.581765 C 33.060310,41.474924 34.306385,42.577870 34.413228,44.331354 C 34.520070,46.084838 33.417125,47.330913 31.663641,47.437754 C 29.910155,47.544596 28.664081,46.441650 28.557240,44.688165 C 28.503819,43.811425 28.762667,43.067617 29.242938,42.525022 z "
     id="path890" />
  <path
     style="font-size:12.000000;stroke-width:1.0000000pt;font-family:Bitstream Vera Serif;"
     d="M 24.415743,29.855339 C 24.415743,29.636589 24.489962,29.451042 24.638399,29.298698 C 24.790743,29.146355 24.978243,29.070183 25.200899,29.070183 C 25.415743,29.070183 25.599337,29.146355 25.751680,29.298698 C 25.904024,29.451042 25.980196,29.636589 25.980196,29.855339 C 25.980196,30.070183 25.904024,30.253777 25.751680,30.406120 C 25.599337,30.558464 25.415743,30.634636 25.200899,30.634636 C 24.978243,30.634636 24.790743,30.560417 24.638399,30.411980 C 24.489962,30.259636 24.415743,30.074089 24.415743,29.855339 z M 23.120821,22.103386 C 23.534883,21.919792 23.927462,21.783073 24.298555,21.693230 C 24.673555,21.603386 25.025118,21.558464 25.353243,21.558464 C 26.220430,21.558464 26.904024,21.767448 27.404024,22.185417 C 27.907930,22.603386 28.159883,23.167839 28.159883,23.878777 C 28.159883,24.605339 27.943087,25.199089 27.509493,25.660027 C 27.079805,26.120964 26.429415,26.451042 25.558321,26.650261 L 25.558321,28.138542 L 24.837618,28.138542 L 24.837618,26.216667 C 25.529024,26.048698 26.048555,25.767448 26.396212,25.372917 C 26.747774,24.978386 26.923555,24.476433 26.923555,23.867058 C 26.923555,23.331902 26.780977,22.910027 26.495821,22.601433 C 26.210665,22.292839 25.821993,22.138542 25.329805,22.138542 C 24.884493,22.138542 24.519258,22.267448 24.234102,22.525261 C 23.952852,22.779167 23.771212,23.146355 23.689180,23.626823 L 23.120821,23.626823 L 23.120821,22.103386 z "
     id="path897" />
  <path
     d="M 24.706114,45.434022 C 24.657767,45.365368 24.461844,44.593742 24.671165,44.426506 C 25.056150,44.118924 26.446993,43.949799 26.489032,44.009567 C 26.528539,44.065603 25.341077,44.434196 24.915897,44.773872 C 24.746772,44.909014 24.739359,45.481172 24.706114,45.434022 z "
     style="font-size:12;opacity:0.7;fill:url(#linearGradient861);fill-rule:evenodd;stroke:none;stroke-width:1.05154pt;"
     id="path868" />
  <path
     d="M 30.382619,39.437936 C 30.349927,39.355285 30.350939,38.146827 30.625324,37.830865 C 30.847859,37.574623 31.843819,37.646500 31.873380,37.721276 C 31.901605,37.792601 31.048065,37.981893 30.798685,38.269124 C 30.551144,38.554143 30.407714,39.501341 30.382619,39.437936 z "
     style="font-size:12;opacity:0.699936;fill:url(#linearGradient869);fill-rule:evenodd;stroke:none;stroke-width:1.07368pt;"
     id="path869" />
  <path
     d="M 34.474354,40.135091 C 34.660975,39.921856 35.716515,39.254707 35.831721,39.254707 C 35.912163,39.254707 35.355384,39.944419 35.061339,40.135091 C 34.902896,40.237864 34.404181,40.215303 34.474354,40.135091 z "
     style="font-size:12;opacity:0.7;fill:url(#linearGradient983);fill-rule:evenodd;stroke:none;stroke-width:1.18334pt;"
     id="path870" />
  <path
     d="M 26.677093,49.131848 C 26.731979,48.980221 27.607299,48.071058 27.800966,47.973442 C 27.894528,47.926246 27.707124,48.523867 27.538690,48.697458 C 27.332501,48.910002 26.644584,49.221545 26.677093,49.131848 z "
     style="font-size:12;opacity:0.7;fill:url(#linearGradient860);fill-rule:evenodd;stroke:none;stroke-width:1.11113pt;"
     id="path871" />
  <path
     style="fill:url(#linearGradient893);fill-rule:evenodd;stroke:none;stroke-opacity:1;stroke-width:1pt;stroke-linejoin:miter;stroke-linecap:butt;fill-opacity:1;"
     d="M 26.339589,40.591882 C 26.274886,40.615410 26.053839,40.392801 26.094949,40.306469 C 26.189750,40.107387 26.526155,39.797569 26.747322,39.735642 C 26.865932,39.702431 27.144407,39.960804 27.114282,40.021055 C 27.076452,40.096715 26.683500,40.040184 26.543455,40.143375 C 26.425269,40.230460 26.424388,40.561046 26.339589,40.591882 z "
     id="path872"
     sodipodi:nodetypes="csssss" />
  <path
     style="fill:url(#linearGradient874);fill-rule:evenodd;stroke:none;stroke-opacity:1;stroke-width:1pt;stroke-linejoin:miter;stroke-linecap:butt;fill-opacity:1;"
     d="M 30.294604,47.971860 C 30.199574,47.864159 32.552903,48.697507 34.045753,47.237939 C 35.837344,45.566020 34.725610,43.053122 34.820447,43.160604 C 34.929477,43.284171 36.121152,46.097896 34.453486,47.564126 C 32.911150,48.889242 30.403440,48.095208 30.294604,47.971860 z "
     id="path873"
     sodipodi:nodetypes="cssss" />
  <path
     d="M 34.101460,16.877572 C 34.039730,16.820650 33.685575,16.107651 33.854947,15.900054 C 34.166456,15.518240 35.490410,15.059772 35.544101,15.109337 C 35.594532,15.155787 34.511431,15.766377 34.167394,16.188036 C 34.030551,16.355788 34.143896,16.916656 34.101460,16.877572 z "
     style="font-size:12;opacity:0.7;fill:url(#linearGradient861);fill-rule:evenodd;stroke:none;stroke-width:1.05154pt;"
     id="path875" />
  <path
     d="M 38.588499,9.8774270 C 38.539122,9.8035230 38.285409,8.6219978 38.487037,8.2553024 C 38.650566,7.9579137 39.639302,7.8182617 39.683959,7.8851275 C 39.726583,7.9489014 38.932113,8.3138384 38.748873,8.6471780 C 38.566965,8.9779677 38.626394,9.9341185 38.588499,9.8774270 z "
     style="font-size:12;opacity:0.699936;fill:url(#linearGradient869);fill-rule:evenodd;stroke:none;stroke-width:1.07368pt;"
     id="path876" />
  <path
     d="M 42.735256,9.8118474 C 42.872743,9.5640691 43.763959,8.6894350 43.876577,8.6651535 C 43.955212,8.6481991 43.556308,9.4397675 43.309056,9.6881310 C 43.175833,9.8219898 42.683566,9.9050477 42.735256,9.8118474 z "
     style="font-size:12;opacity:0.7;fill:url(#linearGradient983);fill-rule:evenodd;stroke:none;stroke-width:1.18334pt;"
     id="path878" />
  <path
     d="M 36.634554,20.192241 C 36.656249,20.032452 37.320286,18.959224 37.489029,18.822982 C 37.570542,18.757127 37.513305,19.380822 37.385242,19.586013 C 37.228482,19.837241 36.621680,20.286775 36.634554,20.192241 z "
     style="font-size:12;opacity:0.7;fill:url(#linearGradient860);fill-rule:evenodd;stroke:none;stroke-width:1.11113pt;"
     id="path879" />
  <path
     style="fill:url(#linearGradient893);fill-rule:evenodd;stroke:none;stroke-opacity:1;stroke-width:1pt;stroke-linejoin:miter;stroke-linecap:butt;fill-opacity:1;"
     d="M 34.821840,11.713428 C 34.763549,11.750065 34.500550,11.579045 34.522540,11.485988 C 34.573252,11.271397 34.836801,10.897637 35.039948,10.790486 C 35.148894,10.733022 35.475569,10.926898 35.458820,10.992145 C 35.437786,11.074079 35.041747,11.101638 34.926597,11.232028 C 34.829420,11.342066 34.898235,11.665412 34.821840,11.713428 z "
     id="path880"
     sodipodi:nodetypes="csssss" />
  <path
     style="fill:url(#linearGradient874);fill-rule:evenodd;stroke:none;stroke-opacity:1;stroke-width:1pt;stroke-linejoin:miter;stroke-linecap:butt;fill-opacity:1;"
     d="M 39.723312,18.210282 C 39.618756,18.111803 42.038899,18.724614 43.390811,17.133617 C 45.020613,15.303628 43.681916,12.903941 43.786259,13.002221 C 43.906217,13.115209 45.352254,15.807070 43.826883,17.420820 C 42.413299,18.882501 39.843058,18.323069 39.723312,18.210282 z "
     id="path881"
     sodipodi:nodetypes="cssss" />
</svg>
