<?xml version="1.0" encoding="UTF-8" standalone="no"?>
<!-- Created with Inkscape (http://www.inkscape.org/) -->
<svg
   xmlns:dc="http://purl.org/dc/elements/1.1/"
   xmlns:cc="http://web.resource.org/cc/"
   xmlns:rdf="http://www.w3.org/1999/02/22-rdf-syntax-ns#"
   xmlns:svg="http://www.w3.org/2000/svg"
   xmlns="http://www.w3.org/2000/svg"
   xmlns:xlink="http://www.w3.org/1999/xlink"
   xmlns:sodipodi="http://sodipodi.sourceforge.net/DTD/sodipodi-0.dtd"
   xmlns:inkscape="http://www.inkscape.org/namespaces/inkscape"
   width="800"
   height="600"
   id="svg2"
   sodipodi:version="0.32"
   inkscape:version="0.45"
   version="1.0"
   sodipodi:docbase="/home/jimmac/gfx/novell/pdes/branches/experiments/suse-1"
   sodipodi:docname="boot4-tongue.svg"
   inkscape:output_extension="org.inkscape.output.svg.inkscape"
   inkscape:export-filename="/home/jimmac/gfx/novell/pdes/branches/experiments/suse-1/boot4-tongue.png"
   inkscape:export-xdpi="90"
   inkscape:export-ydpi="90">
  <sodipodi:namedview
     id="base"
     pagecolor="#ffffff"
     bordercolor="#666666"
     borderopacity="1.0"
     gridtolerance="10000"
     guidetolerance="10"
     objecttolerance="10"
     inkscape:pageopacity="0.0"
     inkscape:pageshadow="2"
     inkscape:zoom="1"
     inkscape:cx="393.64485"
     inkscape:cy="304.01739"
     inkscape:document-units="px"
     inkscape:current-layer="layer2"
     width="800px"
     height="600px"
     borderlayer="true"
     inkscape:showpageshadow="false"
     showgrid="false"
     inkscape:window-width="1022"
     inkscape:window-height="968"
     inkscape:window-x="658"
     inkscape:window-y="134" />
  <defs
     id="defs4">
    <linearGradient
       id="linearGradient8263">
      <stop
         offset="0"
         style="stop-color:#4e9a06;stop-opacity:1;"
         id="stop8267" />
      <stop
         offset="1"
         style="stop-color:#234502;stop-opacity:1;"
         id="stop8265" />
    </linearGradient>
    <linearGradient
       id="linearGradient7902">
      <stop
         offset="0"
         style="stop-color:#ffffff;stop-opacity:1;"
         id="stop7904" />
      <stop
         offset="1"
         style="stop-color:#d1d1d1;stop-opacity:1;"
         id="stop7906" />
    </linearGradient>
    <linearGradient
       id="linearGradient7204"
       inkscape:collect="always">
      <stop
         offset="0"
         style="stop-color:#ffffff;stop-opacity:1;"
         id="stop7206" />
      <stop
         offset="1"
         style="stop-color:#ffffff;stop-opacity:0;"
         id="stop7208" />
    </linearGradient>
    <linearGradient
       id="linearGradient7195">
      <stop
         offset="0"
         style="stop-color:#5794ee;stop-opacity:1;"
         id="stop7197" />
      <stop
         offset="1"
         style="stop-color:#ffffff;stop-opacity:1;"
         id="stop7199" />
    </linearGradient>
    <linearGradient
       id="linearGradient7068">
      <stop
         offset="0"
         style="stop-color:#0e3e86;stop-opacity:1;"
         id="stop7072" />
      <stop
         offset="1"
         style="stop-color:#05152d;stop-opacity:1;"
         id="stop7070" />
    </linearGradient>
    <linearGradient
       id="linearGradient6611"
       inkscape:collect="always">
      <stop
         offset="0"
         style="stop-color:#ffffff;stop-opacity:1;"
         id="stop6613" />
      <stop
         offset="1"
         style="stop-color:#ffffff;stop-opacity:0;"
         id="stop6615" />
    </linearGradient>
    <linearGradient
       id="linearGradient6115"
       inkscape:collect="always">
      <stop
         offset="0"
         style="stop-color:#ffffff;stop-opacity:1;"
         id="stop6117" />
      <stop
         offset="1"
         style="stop-color:#ffffff;stop-opacity:0;"
         id="stop6119" />
    </linearGradient>
    <linearGradient
       id="linearGradient5420">
      <stop
         offset="0"
         style="stop-color:#ffffff;stop-opacity:1;"
         id="stop5422" />
      <stop
         offset="1"
         style="stop-color:#b5b5b5;stop-opacity:1;"
         id="stop5424" />
    </linearGradient>
    <linearGradient
       id="linearGradient5159">
      <stop
         offset="0"
         style="stop-color:#000000;stop-opacity:1;"
         id="stop5161" />
      <stop
         offset="1"
         style="stop-color:#363636;stop-opacity:1;"
         id="stop5163" />
    </linearGradient>
    <linearGradient
       x1="103.00055"
       y1="121.53786"
       inkscape:collect="always"
       gradientUnits="userSpaceOnUse"
       y2="53.214752"
       xlink:href="#linearGradient5420"
       id="linearGradient5426"
       x2="103.00055" />
    <linearGradient
       x1="103.00055"
       y1="121.53786"
       inkscape:collect="always"
       gradientUnits="userSpaceOnUse"
       y2="53.214752"
       xlink:href="#linearGradient5420"
       id="linearGradient5428"
       x2="103.00055" />
    <linearGradient
       x1="103.00055"
       y1="121.53786"
       inkscape:collect="always"
       gradientUnits="userSpaceOnUse"
       y2="53.214752"
       xlink:href="#linearGradient5420"
       id="linearGradient5430"
       x2="103.00055" />
    <linearGradient
       x1="103.00055"
       y1="121.53786"
       inkscape:collect="always"
       gradientUnits="userSpaceOnUse"
       y2="53.214752"
       xlink:href="#linearGradient5420"
       id="linearGradient5432"
       x2="103.00055" />
    <linearGradient
       x1="103.00055"
       y1="121.53786"
       inkscape:collect="always"
       gradientUnits="userSpaceOnUse"
       y2="53.214752"
       xlink:href="#linearGradient5420"
       id="linearGradient5434"
       x2="103.00055" />
    <linearGradient
       x1="103.00055"
       y1="121.53786"
       inkscape:collect="always"
       gradientUnits="userSpaceOnUse"
       y2="53.214752"
       xlink:href="#linearGradient5420"
       id="linearGradient5436"
       x2="103.00055" />
    <linearGradient
       x1="103.00055"
       y1="121.53786"
       inkscape:collect="always"
       gradientUnits="userSpaceOnUse"
       y2="53.214752"
       xlink:href="#linearGradient5420"
       id="linearGradient5438"
       x2="103.00055" />
    <linearGradient
       x1="103.00055"
       y1="121.53786"
       inkscape:collect="always"
       gradientUnits="userSpaceOnUse"
       y2="53.214752"
       xlink:href="#linearGradient5420"
       id="linearGradient5440"
       x2="103.00055" />
    <linearGradient
       x1="103.00055"
       y1="121.53786"
       inkscape:collect="always"
       gradientUnits="userSpaceOnUse"
       y2="53.214752"
       xlink:href="#linearGradient5420"
       id="linearGradient5442"
       x2="103.00055" />
    <linearGradient
       x1="103.00055"
       y1="121.53786"
       inkscape:collect="always"
       gradientUnits="userSpaceOnUse"
       y2="53.214752"
       xlink:href="#linearGradient5420"
       id="linearGradient5444"
       x2="103.00055" />
    <linearGradient
       x1="103.00055"
       y1="121.53786"
       inkscape:collect="always"
       gradientUnits="userSpaceOnUse"
       y2="53.214752"
       xlink:href="#linearGradient5420"
       id="linearGradient5446"
       x2="103.00055" />
    <linearGradient
       x1="103.00055"
       y1="121.53786"
       inkscape:collect="always"
       gradientUnits="userSpaceOnUse"
       y2="53.214752"
       xlink:href="#linearGradient5420"
       id="linearGradient5448"
       x2="103.00055" />
    <linearGradient
       x1="103.00055"
       gradientTransform="matrix(3.0665482,0,0,3.0665482,-381.09035,-82.970675)"
       y1="121.53786"
       inkscape:collect="always"
       gradientUnits="userSpaceOnUse"
       y2="53.214752"
       xlink:href="#linearGradient5420"
       id="linearGradient5452"
       x2="103.00055" />
    <linearGradient
       x1="407"
       y1="502"
       inkscape:collect="always"
       gradientUnits="userSpaceOnUse"
       y2="478.02036"
       xlink:href="#linearGradient5420"
       id="linearGradient5530"
       x2="407" />
    <linearGradient
       x1="407"
       y1="502"
       inkscape:collect="always"
       gradientUnits="userSpaceOnUse"
       y2="478.02036"
       xlink:href="#linearGradient5420"
       id="linearGradient5554"
       x2="407" />
    <linearGradient
       x1="407"
       y1="502"
       inkscape:collect="always"
       gradientUnits="userSpaceOnUse"
       y2="478.02036"
       xlink:href="#linearGradient5420"
       id="linearGradient5769"
       x2="407" />
    <linearGradient
       x1="-45.708333"
       y1="330.125"
       inkscape:collect="always"
       gradientUnits="userSpaceOnUse"
       y2="330.125"
       xlink:href="#linearGradient6115"
       id="linearGradient6121"
       x2="601.16666" />
    <linearGradient
       x1="407"
       y1="502"
       inkscape:collect="always"
       gradientUnits="userSpaceOnUse"
       y2="478.02036"
       xlink:href="#linearGradient5420"
       id="linearGradient6127"
       x2="407" />
    <linearGradient
       x1="407"
       y1="502"
       inkscape:collect="always"
       gradientUnits="userSpaceOnUse"
       y2="478.02036"
       xlink:href="#linearGradient5420"
       id="linearGradient6398"
       x2="407" />
    <filter
       id="filter6546"
       inkscape:collect="always">
      <feGaussianBlur
         stdDeviation="0.89751114"
         id="feGaussianBlur6548"
         inkscape:collect="always" />
    </filter>
    <linearGradient
       x1="674"
       gradientTransform="translate(9,33)"
       y1="466"
       inkscape:collect="always"
       gradientUnits="userSpaceOnUse"
       y2="414.98114"
       xlink:href="#linearGradient5420"
       id="linearGradient6552"
       x2="674" />
    <linearGradient
       x1="639.21875"
       y1="391.39062"
       inkscape:collect="always"
       gradientUnits="userSpaceOnUse"
       y2="496.39062"
       xlink:href="#linearGradient6611"
       id="linearGradient6617"
       x2="636.3125" />
    <linearGradient
       x1="680.88751"
       y1="399"
       inkscape:collect="always"
       gradientUnits="userSpaceOnUse"
       y2="391.6098"
       xlink:href="#linearGradient7204"
       id="linearGradient7210"
       x2="678.90735" />
    <radialGradient
       gradientTransform="matrix(1.8066943,0,0,1.3550208,-504.99066,-237.19071)"
       inkscape:collect="always"
       r="400"
       gradientUnits="userSpaceOnUse"
       xlink:href="#linearGradient8263"
       cy="516"
       id="radialGradient8269"
       fx="626"
       cx="626"
       fy="516" />
    <clipPath
       id="clipPath8280"
       clipPathUnits="userSpaceOnUse">
      <path
         style="color:#000000;fill:#e9fed4;fill-opacity:1;fill-rule:nonzero;stroke:none;stroke-width:3;stroke-linecap:round;stroke-linejoin:round;marker:none;marker-start:none;marker-mid:none;marker-end:none;stroke-miterlimit:4;stroke-dashoffset:0;stroke-opacity:1;visibility:visible;display:inline;overflow:visible;enable-background:accumulate"
         id="path8282"
         d="M 642.5,418.25 L 644.5,426 L 575.5,497 L 569.25,486.5 L 642.5,418.25 z M 657.5,407.75 L 660.25,412 L 674.25,398.25 L 671.75,390.25 L 657.5,407.75 z" />
    </clipPath>
    <filter
       id="filter8318"
       inkscape:collect="always">
      <feGaussianBlur
         stdDeviation="0.45588235"
         id="feGaussianBlur8320"
         inkscape:collect="always" />
    </filter>
    <filter
       id="filter8352"
       inkscape:collect="always">
      <feGaussianBlur
         stdDeviation="0.30238971"
         id="feGaussianBlur8354"
         inkscape:collect="always" />
    </filter>
    <filter
       id="filter8394"
       inkscape:collect="always">
      <feGaussianBlur
         stdDeviation="0.25588235"
         id="feGaussianBlur8396"
         inkscape:collect="always" />
    </filter>
    <linearGradient
       inkscape:collect="always"
       xlink:href="#linearGradient8263"
       id="linearGradient9608"
       x1="616.59711"
       y1="342.61313"
       x2="639.22455"
       y2="-248.52814"
       gradientUnits="userSpaceOnUse" />
    <linearGradient
       inkscape:collect="always"
       xlink:href="#linearGradient8263"
       id="linearGradient9610"
       gradientUnits="userSpaceOnUse"
       x1="616.59711"
       y1="342.61313"
       x2="639.22455"
       y2="-248.52814" />
    <linearGradient
       inkscape:collect="always"
       xlink:href="#linearGradient8263"
       id="linearGradient9612"
       gradientUnits="userSpaceOnUse"
       x1="616.59711"
       y1="342.61313"
       x2="639.22455"
       y2="-248.52814" />
    <linearGradient
       inkscape:collect="always"
       xlink:href="#linearGradient8263"
       id="linearGradient9614"
       gradientUnits="userSpaceOnUse"
       x1="616.59711"
       y1="342.61313"
       x2="639.22455"
       y2="-248.52814" />
    <linearGradient
       inkscape:collect="always"
       xlink:href="#linearGradient8263"
       id="linearGradient9616"
       gradientUnits="userSpaceOnUse"
       x1="616.59711"
       y1="342.61313"
       x2="639.22455"
       y2="-248.52814" />
    <linearGradient
       inkscape:collect="always"
       xlink:href="#linearGradient8263"
       id="linearGradient9618"
       gradientUnits="userSpaceOnUse"
       x1="616.59711"
       y1="342.61313"
       x2="639.22455"
       y2="-248.52814" />
    <linearGradient
       inkscape:collect="always"
       xlink:href="#linearGradient8263"
       id="linearGradient9620"
       gradientUnits="userSpaceOnUse"
       x1="616.59711"
       y1="342.61313"
       x2="639.22455"
       y2="-248.52814" />
    <linearGradient
       inkscape:collect="always"
       xlink:href="#linearGradient8263"
       id="linearGradient9622"
       gradientUnits="userSpaceOnUse"
       x1="616.59711"
       y1="342.61313"
       x2="639.22455"
       y2="-248.52814" />
    <linearGradient
       inkscape:collect="always"
       xlink:href="#linearGradient8263"
       id="linearGradient9624"
       gradientUnits="userSpaceOnUse"
       x1="616.59711"
       y1="342.61313"
       x2="639.22455"
       y2="-248.52814" />
    <linearGradient
       inkscape:collect="always"
       xlink:href="#linearGradient8263"
       id="linearGradient9626"
       gradientUnits="userSpaceOnUse"
       x1="616.59711"
       y1="342.61313"
       x2="639.22455"
       y2="-248.52814" />
    <linearGradient
       inkscape:collect="always"
       xlink:href="#linearGradient8263"
       id="linearGradient9628"
       gradientUnits="userSpaceOnUse"
       x1="616.59711"
       y1="342.61313"
       x2="639.22455"
       y2="-248.52814" />
    <linearGradient
       inkscape:collect="always"
       xlink:href="#linearGradient8263"
       id="linearGradient9630"
       gradientUnits="userSpaceOnUse"
       x1="616.59711"
       y1="342.61313"
       x2="639.22455"
       y2="-248.52814" />
    <linearGradient
       inkscape:collect="always"
       xlink:href="#linearGradient8263"
       id="linearGradient9632"
       gradientUnits="userSpaceOnUse"
       x1="616.59711"
       y1="342.61313"
       x2="639.22455"
       y2="-248.52814" />
    <linearGradient
       inkscape:collect="always"
       xlink:href="#linearGradient8263"
       id="linearGradient9647"
       gradientUnits="userSpaceOnUse"
       x1="616.59711"
       y1="342.61313"
       x2="639.22455"
       y2="-248.52814" />
    <linearGradient
       inkscape:collect="always"
       xlink:href="#linearGradient8263"
       id="linearGradient9649"
       gradientUnits="userSpaceOnUse"
       x1="616.59711"
       y1="342.61313"
       x2="639.22455"
       y2="-248.52814" />
    <linearGradient
       inkscape:collect="always"
       xlink:href="#linearGradient8263"
       id="linearGradient9651"
       gradientUnits="userSpaceOnUse"
       x1="616.59711"
       y1="342.61313"
       x2="639.22455"
       y2="-248.52814" />
    <linearGradient
       inkscape:collect="always"
       xlink:href="#linearGradient8263"
       id="linearGradient9653"
       gradientUnits="userSpaceOnUse"
       x1="616.59711"
       y1="342.61313"
       x2="639.22455"
       y2="-248.52814" />
    <linearGradient
       inkscape:collect="always"
       xlink:href="#linearGradient8263"
       id="linearGradient9655"
       gradientUnits="userSpaceOnUse"
       x1="616.59711"
       y1="342.61313"
       x2="639.22455"
       y2="-248.52814" />
    <linearGradient
       inkscape:collect="always"
       xlink:href="#linearGradient8263"
       id="linearGradient9657"
       gradientUnits="userSpaceOnUse"
       x1="616.59711"
       y1="342.61313"
       x2="639.22455"
       y2="-248.52814" />
    <linearGradient
       inkscape:collect="always"
       xlink:href="#linearGradient8263"
       id="linearGradient9659"
       gradientUnits="userSpaceOnUse"
       x1="616.59711"
       y1="342.61313"
       x2="639.22455"
       y2="-248.52814" />
    <linearGradient
       inkscape:collect="always"
       xlink:href="#linearGradient8263"
       id="linearGradient9661"
       gradientUnits="userSpaceOnUse"
       x1="616.59711"
       y1="342.61313"
       x2="639.22455"
       y2="-248.52814" />
    <linearGradient
       inkscape:collect="always"
       xlink:href="#linearGradient8263"
       id="linearGradient9663"
       gradientUnits="userSpaceOnUse"
       x1="616.59711"
       y1="342.61313"
       x2="639.22455"
       y2="-248.52814" />
    <linearGradient
       inkscape:collect="always"
       xlink:href="#linearGradient8263"
       id="linearGradient9665"
       gradientUnits="userSpaceOnUse"
       x1="616.59711"
       y1="342.61313"
       x2="639.22455"
       y2="-248.52814" />
    <linearGradient
       inkscape:collect="always"
       xlink:href="#linearGradient8263"
       id="linearGradient9667"
       gradientUnits="userSpaceOnUse"
       x1="616.59711"
       y1="342.61313"
       x2="639.22455"
       y2="-248.52814" />
    <linearGradient
       inkscape:collect="always"
       xlink:href="#linearGradient8263"
       id="linearGradient9669"
       gradientUnits="userSpaceOnUse"
       x1="616.59711"
       y1="342.61313"
       x2="639.22455"
       y2="-248.52814" />
    <linearGradient
       inkscape:collect="always"
       xlink:href="#linearGradient8263"
       id="linearGradient9671"
       gradientUnits="userSpaceOnUse"
       x1="616.59711"
       y1="342.61313"
       x2="639.22455"
       y2="-248.52814" />
  </defs>
  <metadata
     id="metadata7">
    <rdf:RDF>
      <cc:Work
         rdf:about="">
        <dc:format>image/svg+xml</dc:format>
        <dc:type
           rdf:resource="http://purl.org/dc/dcmitype/StillImage" />
      </cc:Work>
    </rdf:RDF>
  </metadata>
  <g
     inkscape:label="bcg"
     id="layer1"
     inkscape:groupmode="layer">
    <rect
       rx="0.90156513"
       style="opacity:1;color:#000000;fill:url(#radialGradient8269);fill-opacity:1.0;fill-rule:evenodd;stroke:none;stroke-width:1;stroke-linecap:round;stroke-linejoin:miter;marker:none;marker-start:none;marker-mid:none;marker-end:none;stroke-miterlimit:4;stroke-dasharray:none;stroke-dashoffset:0;stroke-opacity:1;visibility:visible;display:inline;overflow:visible;enable-background:accumulate"
       ry="0.97199976"
       y="0"
       x="0"
       height="600"
       width="800"
       id="rect4580" />
    <g
       id="g9452"
       transform="translate(157.6518,284.24473)"
       style="fill:url(#linearGradient9647);fill-opacity:1">
      <path
         id="path9454"
         d="M -439.92073,157.97916 C -276.05172,253.38216 -87.587706,287.84915 97.362894,315.63585 C 393.37813,354.19107 678.63987,280.00543 955.13607,181.89587 C 972.28334,174.30607 987.04543,167.80966 999.86134,162.19137 C 1124.2006,107.68308 1065.3511,135.83058 1224.2228,50.051221 C 1224.2228,50.051221 1157.5976,103.66132 1157.5976,103.66132 C 995.06477,190.34724 1060.3168,159.27586 924.3453,218.31366 C 913.63442,222.96424 901.67491,228.17397 888.25707,234.04445 C 609.61407,331.98677 322.84448,405.11407 24.905104,366.69592 C -167.34714,339.59831 -358.86883,302.52863 -536.84832,221.75407 C -536.84832,221.75407 -528.00668,215.93659 -515.66419,207.81567 C -487.14088,189.04834 -439.92073,157.97916 -439.92073,157.97916 C -439.92073,157.97916 -439.92073,157.97916 -439.92073,157.97916"
         style="opacity:1;color:#000000;fill:url(#linearGradient9649);fill-opacity:1;fill-rule:nonzero;stroke:none;stroke-width:3;stroke-linecap:round;stroke-linejoin:round;marker:none;marker-start:none;marker-mid:none;marker-end:none;stroke-miterlimit:4;stroke-dasharray:none;stroke-dashoffset:0;stroke-opacity:1;visibility:visible;display:inline;overflow:visible;enable-background:accumulate" />
      <path
         id="path9456"
         d="M -411.44463,118.65209 C -249.14612,215.41814 -63.179357,253.63791 120.36331,283.59207 C 413.26289,325.8916 698.22328,260.46869 975.06474,171.59323 C 992.06197,164.71083 1006.8904,158.81721 1019.9488,153.71728 C 1144.5841,102.36935 1097.977,127.17324 1245.433,49.022999 C 1248.8989,48.829499 1186.7295,98.179597 1181.3254,99.008366 C 1028.7931,178.54607 1080.3685,151.19965 946.91587,205.53018 C 936.04379,209.80462 924.03775,214.5785 910.70716,219.94422 C 631.55076,309.64274 345.63619,372.18067 50.854077,329.21624 C -139.7309,299.27049 -329.08996,258.4704 -505.38657,176.29518 C -506.01196,175.91798 -498.5981,170.2491 -488.00024,162.48314 C -462.06995,145.42193 -411.44463,118.65209 -411.44463,118.65209 C -411.44463,118.65209 -411.44463,118.65209 -411.44463,118.65209"
         style="opacity:1;color:#000000;fill:url(#linearGradient9651);fill-opacity:1;fill-rule:nonzero;stroke:none;stroke-width:3;stroke-linecap:round;stroke-linejoin:round;marker:none;marker-start:none;marker-mid:none;marker-end:none;stroke-miterlimit:4;stroke-dasharray:none;stroke-dashoffset:0;stroke-opacity:1;visibility:visible;display:inline;overflow:visible;enable-background:accumulate" />
      <path
         id="path9458"
         d="M -382.96852,79.325022 C -222.24052,177.45411 -38.771008,219.42668 143.36373,251.54829 C 433.14765,297.59213 717.80669,240.93196 994.99341,161.2906 C 1011.8406,155.1156 1026.7353,149.82477 1040.0362,145.24319 C 1164.9677,97.055619 1130.6029,118.5159 1266.6432,47.994777 C 1273.5749,47.607777 1215.8614,92.697874 1205.0533,94.355412 C 1062.5215,166.7449 1100.4202,143.12343 969.48645,192.7467 C 958.45316,196.645 946.40058,200.98303 933.15724,205.844 C 653.48745,287.2987 368.4279,339.24728 76.80305,291.73657 C -112.11466,258.94267 -299.31108,214.41217 -473.92482,130.83629 C -475.17561,130.08189 -469.18953,124.56161 -460.33629,117.15061 C -436.99903,101.79553 -382.96852,79.325022 -382.96852,79.325022 C -382.96852,79.325022 -382.96852,79.325022 -382.96852,79.325022"
         style="opacity:1;color:#000000;fill:url(#linearGradient9653);fill-opacity:1;fill-rule:nonzero;stroke:none;stroke-width:3;stroke-linecap:round;stroke-linejoin:round;marker:none;marker-start:none;marker-mid:none;marker-end:none;stroke-miterlimit:4;stroke-dasharray:none;stroke-dashoffset:0;stroke-opacity:1;visibility:visible;display:inline;overflow:visible;enable-background:accumulate" />
      <path
         id="path9460"
         d="M -354.49242,39.997953 C -195.33493,139.49009 -14.362659,185.21544 166.36414,219.50451 C 453.03241,269.29267 737.3901,221.39522 1014.9221,150.98796 C 1031.6192,145.52036 1046.5803,140.83233 1060.1236,136.7691 C 1185.3512,91.741887 1163.2289,109.85856 1287.8534,46.966556 C 1298.251,46.386056 1244.9933,87.216151 1228.7811,89.702458 C 1096.2498,154.94372 1120.472,135.04722 992.05702,179.96322 C 980.86254,183.48538 968.76342,187.38756 955.60733,191.74377 C 675.42414,264.95467 391.21962,306.31388 102.75202,254.25689 C -84.498425,218.61485 -269.53221,170.35394 -442.46308,85.377397 C -444.33925,84.245796 -439.78095,78.874123 -432.67233,71.818084 C -411.92811,58.169118 -354.49242,39.997953 -354.49242,39.997953 C -354.49242,39.997953 -354.49242,39.997953 -354.49242,39.997953"
         style="opacity:1;color:#000000;fill:url(#linearGradient9655);fill-opacity:1;fill-rule:nonzero;stroke:none;stroke-width:3;stroke-linecap:round;stroke-linejoin:round;marker:none;marker-start:none;marker-mid:none;marker-end:none;stroke-miterlimit:4;stroke-dasharray:none;stroke-dashoffset:0;stroke-opacity:1;visibility:visible;display:inline;overflow:visible;enable-background:accumulate" />
      <path
         id="path9462"
         d="M -326.01631,0.67088364 C -168.42933,101.52607 10.04569,151.0042 189.36456,187.46073 C 472.91717,240.9932 756.97351,201.85849 1034.8508,140.68532 C 1051.3979,135.92512 1066.4253,131.83989 1080.211,128.29501 C 1205.7348,86.428156 1195.8548,101.20122 1309.0636,45.938334 C 1322.927,45.164334 1274.1253,81.734428 1252.5089,85.049504 C 1129.9782,143.14255 1140.5237,126.97101 1014.6276,167.17974 C 1003.2719,170.32576 991.12626,173.79209 978.05741,177.64354 C 697.36082,242.61064 414.01133,273.38048 128.701,216.77721 C -56.882187,178.28703 -239.75334,126.29571 -411.00133,39.918506 C -413.50289,38.409705 -410.37237,33.186635 -405.00838,26.485556 C -386.85718,14.542711 -326.01631,0.67088364 -326.01631,0.67088364 C -326.01631,0.67088364 -326.01631,0.67088364 -326.01631,0.67088364"
         style="opacity:1;color:#000000;fill:url(#linearGradient9657);fill-opacity:1;fill-rule:nonzero;stroke:none;stroke-width:3;stroke-linecap:round;stroke-linejoin:round;marker:none;marker-start:none;marker-mid:none;marker-end:none;stroke-miterlimit:4;stroke-dasharray:none;stroke-dashoffset:0;stroke-opacity:1;visibility:visible;display:inline;overflow:visible;enable-background:accumulate" />
      <path
         id="path9464"
         d="M -297.54021,-38.656185 C -141.52373,63.562046 34.454039,116.79297 212.36498,155.41695 C 492.80193,212.69373 776.55692,182.32175 1054.7794,130.38269 C 1071.1765,126.32989 1086.2702,122.84745 1100.2985,119.82092 C 1226.1184,81.114424 1228.4807,92.543883 1330.2738,44.910112 C 1347.6031,43.942612 1303.2572,76.252705 1276.2367,80.39655 C 1163.7065,131.34138 1160.5754,118.8948 1037.1982,154.39626 C 1025.6813,157.16614 1013.4891,160.19662 1000.5075,163.54332 C 719.29751,220.26661 436.80304,240.44708 154.64997,179.29753 C -29.265948,137.95922 -209.97446,82.23748 -379.53958,-5.5403854 C -382.66654,-7.4263869 -380.96379,-12.500853 -377.34443,-18.846972 C -361.78626,-29.083697 -297.54021,-38.656185 -297.54021,-38.656185 C -297.54021,-38.656185 -297.54021,-38.656185 -297.54021,-38.656185"
         style="opacity:1;color:#000000;fill:url(#linearGradient9659);fill-opacity:1;fill-rule:nonzero;stroke:none;stroke-width:3;stroke-linecap:round;stroke-linejoin:round;marker:none;marker-start:none;marker-mid:none;marker-end:none;stroke-miterlimit:4;stroke-dasharray:none;stroke-dashoffset:0;stroke-opacity:1;visibility:visible;display:inline;overflow:visible;enable-background:accumulate" />
      <path
         id="path9466"
         d="M -269.0641,-77.983255 C -114.61813,25.598023 58.862388,82.58173 235.36539,123.37317 C 512.68669,184.39426 796.14032,162.78502 1074.7081,120.08005 C 1090.9551,116.73465 1106.1152,113.855 1120.3859,111.34684 C 1246.5019,75.800693 1261.1067,83.886544 1351.484,43.88189 C 1372.2791,42.72089 1332.3891,70.770982 1299.9646,75.743597 C 1197.4349,119.54021 1180.6271,110.81858 1059.7687,141.61278 C 1048.0907,144.00652 1035.8519,146.60114 1022.9576,149.44309 C 741.2342,197.92257 459.59475,207.51369 180.59894,141.81786 C -1.6497098,97.631397 -180.19559,38.17925 -348.07783,-50.999276 C -351.83018,-53.262478 -351.55522,-58.188341 -349.68048,-64.1795 C -336.71533,-72.710104 -269.0641,-77.983255 -269.0641,-77.983255 C -269.0641,-77.983255 -269.0641,-77.983255 -269.0641,-77.983255"
         style="opacity:1;color:#000000;fill:url(#linearGradient9661);fill-opacity:1;fill-rule:nonzero;stroke:none;stroke-width:3;stroke-linecap:round;stroke-linejoin:round;marker:none;marker-start:none;marker-mid:none;marker-end:none;stroke-miterlimit:4;stroke-dasharray:none;stroke-dashoffset:0;stroke-opacity:1;visibility:visible;display:inline;overflow:visible;enable-background:accumulate" />
      <path
         id="path9468"
         d="M -240.588,-117.31032 C -87.712536,-12.365999 83.270737,48.370494 258.36581,91.329387 C 532.57145,156.09479 815.72373,143.24828 1094.6368,109.77741 C 1110.7337,107.13942 1125.9602,104.86256 1140.4733,102.87275 C 1266.8855,70.486961 1293.7326,75.229206 1372.6942,42.853669 C 1396.9552,41.499169 1361.521,65.289259 1323.6924,71.090643 C 1231.1633,107.73904 1200.6789,102.74237 1082.3393,128.8293 C 1070.5,130.8469 1058.2148,133.00567 1045.4077,135.34286 C 763.17089,175.57854 482.38647,174.58029 206.54791,104.33818 C 25.966529,57.303579 -150.41672,-5.8789799 -316.61608,-96.458167 C -320.99383,-99.09857 -322.14664,-103.87583 -322.01652,-109.51203 C -311.64441,-116.33651 -240.588,-117.31032 -240.588,-117.31032 C -240.588,-117.31032 -240.588,-117.31032 -240.588,-117.31032"
         style="opacity:1;color:#000000;fill:url(#linearGradient9663);fill-opacity:1;fill-rule:nonzero;stroke:none;stroke-width:3;stroke-linecap:round;stroke-linejoin:round;marker:none;marker-start:none;marker-mid:none;marker-end:none;stroke-miterlimit:4;stroke-dasharray:none;stroke-dashoffset:0;stroke-opacity:1;visibility:visible;display:inline;overflow:visible;enable-background:accumulate" />
      <path
         id="path9470"
         d="M -212.11189,-156.63739 C -60.806938,-50.330022 107.67909,14.159257 281.36622,59.285606 C 552.45622,127.79533 835.30714,123.71154 1114.5654,99.474778 C 1130.5124,97.544179 1145.8051,95.870118 1160.5607,94.398657 C 1287.2691,65.17323 1326.3586,66.571867 1393.9043,41.825447 C 1421.6312,40.277447 1390.6529,59.807536 1347.4202,66.437689 C 1264.8916,95.937867 1220.7306,94.66616 1104.9099,116.04583 C 1092.9094,117.68728 1080.5776,119.4102 1067.8578,121.24264 C 785.10758,153.23451 505.17818,141.64689 232.49689,66.8585 C 53.582767,16.97576 -120.63784,-49.93721 -285.15433,-141.91706 C -290.15747,-144.93466 -292.73806,-149.56332 -294.35257,-154.84456 C -286.57348,-159.96292 -212.11189,-156.63739 -212.11189,-156.63739 C -212.11189,-156.63739 -212.11189,-156.63739 -212.11189,-156.63739"
         style="opacity:1;color:#000000;fill:url(#linearGradient9665);fill-opacity:1;fill-rule:nonzero;stroke:none;stroke-width:3;stroke-linecap:round;stroke-linejoin:round;marker:none;marker-start:none;marker-mid:none;marker-end:none;stroke-miterlimit:4;stroke-dasharray:none;stroke-dashoffset:0;stroke-opacity:1;visibility:visible;display:inline;overflow:visible;enable-background:accumulate" />
      <path
         id="path9472"
         d="M -183.63579,-195.96446 C -33.90134,-88.294045 132.08743,-20.05198 304.36664,27.241826 C 572.34098,99.495857 854.89055,104.17481 1134.4941,89.172142 C 1150.291,87.948942 1165.6501,86.877676 1180.6482,85.924568 C 1307.6526,59.859499 1358.9845,57.914529 1415.1145,40.797225 C 1446.3073,39.055725 1419.7848,54.325814 1371.148,61.784735 C 1298.62,84.136695 1240.7823,86.589948 1127.4805,103.26235 C 1115.3188,104.52766 1102.9404,105.81473 1090.3078,107.14241 C 807.04427,130.89048 527.96989,108.71349 258.44586,29.378823 C 81.199005,-23.352059 -90.858968,-93.99544 -253.69259,-187.37595 C -259.32111,-190.77075 -263.32948,-195.2508 -266.68862,-200.17708 C -261.50256,-203.58933 -183.63579,-195.96446 -183.63579,-195.96446 C -183.63579,-195.96446 -183.63579,-195.96446 -183.63579,-195.96446"
         style="opacity:1;color:#000000;fill:url(#linearGradient9667);fill-opacity:1;fill-rule:nonzero;stroke:none;stroke-width:3;stroke-linecap:round;stroke-linejoin:round;marker:none;marker-start:none;marker-mid:none;marker-end:none;stroke-miterlimit:4;stroke-dasharray:none;stroke-dashoffset:0;stroke-opacity:1;visibility:visible;display:inline;overflow:visible;enable-background:accumulate" />
      <path
         id="path9474"
         d="M -155.15968,-235.29153 C -6.9957427,-126.25807 156.49578,-54.263216 327.36706,-4.8019546 C 592.22574,71.196389 874.47396,84.638074 1154.4228,78.869505 C 1170.0696,78.353706 1185.495,77.885233 1200.7356,77.450479 C 1328.0362,54.545767 1391.6104,49.25719 1436.3247,39.769003 C 1470.9833,37.834003 1448.9168,48.844091 1394.8759,57.131781 C 1332.3483,72.335524 1260.8341,78.513736 1150.051,90.478869 C 1137.7281,91.368043 1125.3033,92.219261 1112.7579,93.042182 C 828.98096,108.54644 550.7616,75.780097 284.39483,-8.1008548 C 108.81524,-63.679878 -61.080095,-138.05367 -222.23084,-232.83484 C -228.48476,-236.60684 -233.92091,-240.93829 -239.02466,-245.50961 C -236.43163,-247.21573 -155.15968,-235.29153 -155.15968,-235.29153 C -155.15968,-235.29153 -155.15968,-235.29153 -155.15968,-235.29153"
         style="opacity:1;color:#000000;fill:url(#linearGradient9669);fill-opacity:1;fill-rule:nonzero;stroke:none;stroke-width:3;stroke-linecap:round;stroke-linejoin:round;marker:none;marker-start:none;marker-mid:none;marker-end:none;stroke-miterlimit:4;stroke-dasharray:none;stroke-dashoffset:0;stroke-opacity:1;visibility:visible;display:inline;overflow:visible;enable-background:accumulate" />
      <path
         id="path9476"
         d="M -124.68358,-286.6186 C 21.909855,-176.22209 180.90413,-88.474453 350.36747,-36.845735 C 612.1105,42.896921 894.05737,65.101338 1174.3515,68.566869 C 1189.8483,68.75847 1205.34,68.892791 1220.823,68.97639 C 1348.4197,49.232036 1424.2364,40.599852 1457.5349,38.740781 C 1495.6594,36.612282 1478.0487,43.362368 1418.6037,52.478827 C 1366.0767,60.534353 1280.8858,70.437523 1172.6216,77.69539 C 1160.1375,78.208423 1147.6661,78.62379 1135.208,78.941955 C 850.91764,86.202411 573.55332,42.8467 310.3438,-45.580532 C 136.43148,-104.0077 -31.301221,-182.1119 -190.76909,-278.29373 C -197.6484,-282.44294 -204.51233,-286.62578 -211.36071,-290.84214 C -211.36071,-290.84214 -137.68358,-291.6186 -137.68358,-291.6186 C -137.68358,-291.6186 -127.68358,-295.6186 -127.68358,-295.6186"
         style="opacity:1;color:#000000;fill:url(#linearGradient9671);fill-opacity:1;fill-rule:nonzero;stroke:none;stroke-width:3;stroke-linecap:round;stroke-linejoin:round;marker:none;marker-start:none;marker-mid:none;marker-end:none;stroke-miterlimit:4;stroke-dasharray:none;stroke-dashoffset:0;stroke-opacity:1;visibility:visible;display:inline;overflow:visible;enable-background:accumulate"
         sodipodi:nodetypes="csscsscsssccc" />
    </g>
  </g>
  <g
     inkscape:label="logo"
     id="layer2"
     inkscape:groupmode="layer">
    <g
       style="opacity:0.54705882"
       id="g6597">
      <g
         style="opacity:1;fill:#000000;fill-opacity:1;filter:url(#filter6546)"
         id="g6232"
         transform="matrix(0.6149968,0,0,0.6149968,328.50132,209.31178)">
        <path
           style="fill:#000000;fill-opacity:1;stroke:none"
           id="path6234"
           d="M 525.54912,468.81976 L 525.38699,468.81976 C 525.19961,468.81976 525.03715,468.6573 525.03715,468.46991 L 525.03715,465.95923 L 524.48744,466.79612 C 524.42506,466.88343 524.31251,466.92083 524.21273,466.92083 L 524.15005,466.92083 C 524.05027,466.92083 523.93771,466.88343 523.87536,466.79612 L 523.31315,465.95923 L 523.31315,468.46991 C 523.31315,468.6573 523.15069,468.81976 522.95083,468.81976 L 522.7887,468.81976 C 522.60132,468.81976 522.43886,468.6573 522.43886,468.46991 L 522.43886,465.47188 L 520.75226,465.47188 L 520.75226,468.46991 C 520.75226,468.6573 520.57732,468.81976 520.37779,468.81976 L 520.22781,468.81976 C 520.0404,468.81976 519.87797,468.6573 519.87797,468.46991 L 519.87797,465.47188 L 518.61637,465.47188 C 518.42899,465.47188 518.279,465.34681 518.279,465.14725 L 518.279,464.97235 C 518.279,464.77249 518.42899,464.64743 518.61637,464.64743 L 523.03843,464.64743 C 523.21337,464.64743 523.32563,464.70981 523.38831,464.80989 L 524.2252,466.07148 L 525.0621,464.80989 C 525.12445,464.72228 525.22453,464.64743 525.41194,464.64743 L 525.97415,464.64743 L 525.97415,468.49487 C 525.97415,468.68225 525.79921,468.84471 525.59935,468.84471" />
        <path
           style="fill:#000000;fill-opacity:1;stroke:none"
           id="path6236"
           d="M 380.95621,463.5608 C 374.91023,463.5608 371.56235,468.68225 371.56235,472.22999 L 371.56235,476.77712 C 371.56235,481.9862 375.82195,485.22153 379.78195,485.22153 L 393.64778,485.22153 C 395.38422,485.22153 395.74654,486.35806 395.74654,487.31999 L 395.74654,490.25568 C 395.74654,490.56779 395.69667,493.39122 393.64778,493.39122 L 374.72285,493.39122 C 372.84887,493.39122 371.48752,494.69022 371.48752,496.47656 L 371.48752,497.28854 C 371.48752,499.06241 372.83639,500.37421 374.72285,500.37421 L 394.68483,500.37421 C 399.89392,500.37421 403.26675,496.75128 403.26675,491.13 L 403.26675,486.22085 C 403.26675,480.94912 399.46925,478.58842 395.70914,478.58842 L 382.06812,478.58842 C 380.00676,478.58842 379.08256,477.06428 379.08256,475.96517 L 379.08256,473.26677 C 379.08256,471.55558 380.2191,470.58118 382.21778,470.58118 L 397.33303,470.58118 C 399.18176,470.58118 400.56835,469.25693 400.56835,467.49551 L 400.56835,466.68357 C 400.56835,464.93462 399.1568,463.5982 397.27068,463.5982 L 380.98116,463.5982" />
        <path
           style="fill:#000000;fill-opacity:1;stroke:none"
           id="path6238"
           d="M 437.70666,463.5608 C 435.92031,463.5608 434.47133,465.00978 434.47133,466.79612 L 434.47133,490.03086 C 434.47133,491.87956 432.9597,493.37875 431.12345,493.37875 L 420.58025,493.37875 C 418.73155,493.37875 417.23233,491.87956 417.23233,490.03086 L 417.23233,466.79612 C 417.23233,465.00978 415.79586,463.5608 413.99704,463.5608 L 412.97273,463.5608 C 411.17391,463.5608 409.7374,464.98482 409.7374,466.79612 L 409.7374,490.91763 C 409.7374,496.52647 414.14702,500.59899 420.2304,500.59899 L 431.49824,500.59899 C 437.58162,500.59899 441.99121,496.52647 441.99121,490.91763 L 441.99121,466.79612 C 441.99121,464.98482 440.56722,463.5608 438.75592,463.5608 L 437.73161,463.5608" />
        <path
           style="fill:#000000;fill-opacity:1;stroke:none"
           id="path6240"
           d="M 457.90593,463.5608 C 451.85998,463.5608 448.5121,468.68225 448.5121,472.22999 L 448.5121,476.77712 C 448.5121,481.9862 452.78418,485.22153 456.73167,485.22153 L 470.5975,485.22153 C 472.33397,485.22153 472.70877,486.35806 472.70877,487.31999 L 472.70877,490.25568 C 472.70877,490.56779 472.64641,493.39122 470.5975,493.39122 L 451.6726,493.39122 C 449.79862,493.39122 448.43727,494.69022 448.43727,496.47656 L 448.43727,497.28854 C 448.43727,499.06241 449.79862,500.37421 451.6726,500.37421 L 471.62211,500.37421 C 476.84367,500.37421 480.2037,496.75128 480.2037,491.13 L 480.2037,486.22085 C 480.2037,480.94912 476.419,478.58842 472.64641,478.58842 L 459.00507,478.58842 C 456.94403,478.58842 456.01983,477.06428 456.01983,475.96517 L 456.01983,473.26677 C 456.01983,471.55558 457.15637,470.58118 459.14257,470.58118 L 474.25782,470.58118 C 476.09408,470.58118 477.49318,469.25693 477.49318,467.49551 L 477.49318,466.68357 C 477.49318,464.93462 476.0816,463.5982 474.1827,463.5982 L 457.90593,463.5982" />
        <path
           style="fill:#000000;fill-opacity:1;stroke:none"
           id="path6242"
           d="M 489.79745,463.5608 C 488.0114,463.5608 486.63725,464.88471 486.63725,466.64614 L 486.63725,497.28854 C 486.63725,499.03745 487.9612,500.37421 489.7351,500.37421 L 514.15658,500.37421 C 516.03056,500.37421 517.39223,499.07488 517.39223,497.28854 L 517.39223,496.47656 C 517.39223,494.70269 516.04303,493.39122 514.15658,493.39122 C 514.15658,493.39122 495.05674,493.39122 494.15716,493.39122 C 494.15716,492.59175 494.15716,486.38331 494.15716,485.58385 C 495.05674,485.58385 508.81031,485.58385 508.81031,485.58385 C 510.68396,485.58385 512.04564,484.28452 512.04564,482.4857 L 512.04564,481.68623 C 512.04564,479.89989 510.68396,478.58842 508.81031,478.58842 C 508.81031,478.58842 495.05674,478.58842 494.15716,478.58842 C 494.15716,477.78895 494.15716,471.36817 494.15716,470.56871 C 495.05674,470.56871 513.14474,470.56871 513.14474,470.56871 C 515.01875,470.56871 516.3804,469.26938 516.3804,467.48303 L 516.3804,466.67109 C 516.3804,464.88471 515.01875,463.58575 513.14474,463.58575 L 489.81025,463.58575" />
        <path
           style="fill:#000000;fill-opacity:1;stroke:none"
           id="path6244"
           d="M 282.17071,478.13846 C 279.1227,478.13846 276.63682,480.51197 276.63682,483.44763 L 276.63682,495.00266 C 276.63682,497.97575 279.03525,500.39913 281.98335,500.39913 L 289.45345,500.39913 C 292.40152,500.39913 294.81243,497.97575 294.81243,495.00266 L 294.81243,483.44763 C 294.81243,480.52445 292.32658,478.13846 289.27854,478.13846 L 282.17071,478.13846 z M 280.55927,494.55271 L 280.55927,484.00984 C 280.55927,482.77289 281.5711,481.76106 282.8078,481.76106 L 288.629,481.76106 C 289.84072,481.76106 290.87751,482.78567 290.87751,484.00984 L 290.87751,494.55271 C 290.87751,495.78968 289.86568,496.80148 288.629,496.80148 L 282.75781,496.80148 C 281.52113,496.80148 280.55927,495.8146 280.55927,494.55271" />
        <path
           style="fill:#000000;fill-opacity:1;stroke:none"
           id="path6246"
           d="M 311.75149,478.00128 C 309.59034,478.00128 307.97884,478.77583 306.66719,479.40036 C 305.88023,479.77485 305.19317,480.09975 304.65604,480.09975 C 304.43119,480.09975 304.2188,479.99997 304.10636,479.82506 L 303.61919,478.87558 C 303.50676,478.62584 303.00708,478.13846 302.38252,478.13846 L 301.658,478.13846 C 300.95843,478.13846 300.38381,478.76335 300.38381,479.55001 L 300.38381,508.84354 C 300.38381,509.75526 301.09585,510.4799 302.02026,510.4799 L 302.65732,510.4799 C 303.55675,510.4799 304.29378,509.74279 304.29378,508.84354 L 304.29378,499.12476 C 304.29378,498.83759 304.48113,498.53763 304.65604,498.53763 C 305.19317,498.53763 305.88023,498.83759 306.6797,499.21239 C 307.97884,499.79952 309.60282,500.54878 311.76396,500.54878 L 312.4384,500.54878 C 316.24841,500.54878 318.62189,498.3755 318.62189,494.87763 L 318.62189,483.69739 C 318.62189,480.24973 316.1985,478.01376 312.4384,478.01376 L 311.75149,478.01376 L 311.75149,478.01376 L 311.75149,478.00128 z M 304.28127,494.3279 L 304.28127,484.24712 C 304.28127,482.86053 305.36808,481.77354 306.75465,481.77354 L 312.20111,481.77354 C 313.58774,481.77354 314.67437,482.86053 314.67437,484.24712 L 314.67437,494.3279 C 314.67437,495.68957 313.57526,496.80148 312.20111,496.80148 L 306.75465,496.80148 C 305.39306,496.80148 304.28127,495.68957 304.28127,494.3279" />
        <path
           style="fill:#000000;fill-opacity:1;stroke:none"
           id="path6248"
           d="M 329.68954,478.13846 C 326.6416,478.13846 324.15586,480.51197 324.15586,483.44763 L 324.15586,494.91503 C 324.15586,497.88814 326.56677,500.41161 329.41482,500.41161 L 337.12245,500.41161 C 338.07157,500.41161 338.75881,499.76179 338.75881,498.86255 L 338.75881,498.36269 C 338.75881,497.46344 338.07157,496.81396 337.12245,496.81396 L 330.80145,496.81396 C 329.02758,496.81396 328.09058,495.95181 328.09058,494.29047 C 328.09058,494.29047 328.09058,491.40502 328.09058,490.94259 C 328.60288,490.94259 339.5084,490.94259 339.5084,490.94259 C 341.33218,490.94259 342.43128,489.81853 342.43128,487.9196 L 342.43128,483.47261 C 342.43128,480.54937 339.94555,478.16374 336.89764,478.16374 L 329.70231,478.16374 L 329.68954,478.13846 z M 328.0781,483.95963 C 328.0781,482.73546 329.04003,481.76106 330.27667,481.76106 L 336.28522,481.76106 C 337.52217,481.76106 338.48379,482.72299 338.48379,483.95963 C 338.48379,483.95963 338.48379,487.07023 338.48379,487.53235 C 337.99674,487.53235 328.56548,487.53235 328.0781,487.53235 C 328.0781,487.07023 328.0781,483.95963 328.0781,483.95963" />
        <path
           style="fill:#000000;fill-opacity:1;stroke:none"
           id="path6250"
           d="M 358.32108,478.00128 C 356.17241,478.00128 354.5485,478.76335 353.2492,479.38791 C 352.43723,479.76238 351.73784,480.09975 351.17566,480.09975 C 350.9259,480.09975 350.82582,480.07479 350.63841,479.73743 L 350.18878,478.91301 C 349.93902,478.40103 349.50187,478.13846 348.90226,478.13846 L 348.26493,478.13846 C 347.50319,478.13846 346.95346,478.72559 346.95346,479.55001 L 346.95346,498.76244 C 346.95346,499.67449 347.6778,500.41161 348.58982,500.41161 L 349.22685,500.41161 C 350.12643,500.41161 350.86322,499.67449 350.86322,498.76244 L 350.86322,484.22217 C 350.86322,482.86053 351.97513,481.74858 353.3368,481.74858 L 358.78318,481.74858 C 360.14485,481.74858 361.25644,482.86053 361.25644,484.22217 L 361.25644,498.76244 C 361.25644,499.67449 361.98107,500.41161 362.89313,500.41161 L 363.53016,500.41161 C 364.42941,500.41161 365.16653,499.67449 365.16653,498.76244 L 365.16653,483.68492 C 365.16653,480.23725 362.74314,478.00128 358.98304,478.00128 L 358.29613,478.00128" />
      </g>
      <text
         style="font-size:150.49784851px;font-style:normal;font-variant:normal;font-weight:bold;font-stretch:normal;text-align:start;line-height:125%;writing-mode:lr-tb;text-anchor:start;opacity:1;color:#000000;fill:#000000;fill-opacity:1;fill-rule:nonzero;stroke:none;stroke-width:0.61499679;stroke-linecap:butt;stroke-linejoin:miter;marker:none;marker-start:none;marker-mid:none;marker-end:none;stroke-miterlimit:4;stroke-dasharray:none;stroke-dashoffset:0;stroke-opacity:1;visibility:visible;display:inline;overflow:visible;filter:url(#filter6546);enable-background:accumulate;font-family:Candara"
         y="475.03885"
         x="560.78418"
         sodipodi:linespacing="125%"
         id="text6252"
         xml:space="preserve"><tspan
           sodipodi:role="line"
           dy="0 0 0 10"
           style="letter-spacing:-21.25;color:#000000;fill:#000000;fill-opacity:1;fill-rule:nonzero;stroke:none;stroke-width:0.61499679;stroke-linecap:butt;stroke-linejoin:miter;marker:none;marker-start:none;marker-mid:none;marker-end:none;stroke-miterlimit:4;stroke-dasharray:none;stroke-dashoffset:0;stroke-opacity:1;visibility:visible;display:inline;overflow:visible;enable-background:accumulate"
           y="475.03885"
           x="560.78418"
           id="tspan6254">10.3</tspan></text>
    </g>
    <g
       style="fill:#ffffff;fill-opacity:1"
       id="g5501"
       transform="matrix(0.6149968,0,0,0.6149968,328.50132,208.31178)">
      <path
         style="fill:#ffffff;fill-opacity:1;stroke:none"
         id="path2095"
         d="M 525.54912,468.81976 L 525.38699,468.81976 C 525.19961,468.81976 525.03715,468.6573 525.03715,468.46991 L 525.03715,465.95923 L 524.48744,466.79612 C 524.42506,466.88343 524.31251,466.92083 524.21273,466.92083 L 524.15005,466.92083 C 524.05027,466.92083 523.93771,466.88343 523.87536,466.79612 L 523.31315,465.95923 L 523.31315,468.46991 C 523.31315,468.6573 523.15069,468.81976 522.95083,468.81976 L 522.7887,468.81976 C 522.60132,468.81976 522.43886,468.6573 522.43886,468.46991 L 522.43886,465.47188 L 520.75226,465.47188 L 520.75226,468.46991 C 520.75226,468.6573 520.57732,468.81976 520.37779,468.81976 L 520.22781,468.81976 C 520.0404,468.81976 519.87797,468.6573 519.87797,468.46991 L 519.87797,465.47188 L 518.61637,465.47188 C 518.42899,465.47188 518.279,465.34681 518.279,465.14725 L 518.279,464.97235 C 518.279,464.77249 518.42899,464.64743 518.61637,464.64743 L 523.03843,464.64743 C 523.21337,464.64743 523.32563,464.70981 523.38831,464.80989 L 524.2252,466.07148 L 525.0621,464.80989 C 525.12445,464.72228 525.22453,464.64743 525.41194,464.64743 L 525.97415,464.64743 L 525.97415,468.49487 C 525.97415,468.68225 525.79921,468.84471 525.59935,468.84471" />
      <path
         style="fill:#ffffff;fill-opacity:1;stroke:none"
         id="path2097"
         d="M 380.95621,463.5608 C 374.91023,463.5608 371.56235,468.68225 371.56235,472.22999 L 371.56235,476.77712 C 371.56235,481.9862 375.82195,485.22153 379.78195,485.22153 L 393.64778,485.22153 C 395.38422,485.22153 395.74654,486.35806 395.74654,487.31999 L 395.74654,490.25568 C 395.74654,490.56779 395.69667,493.39122 393.64778,493.39122 L 374.72285,493.39122 C 372.84887,493.39122 371.48752,494.69022 371.48752,496.47656 L 371.48752,497.28854 C 371.48752,499.06241 372.83639,500.37421 374.72285,500.37421 L 394.68483,500.37421 C 399.89392,500.37421 403.26675,496.75128 403.26675,491.13 L 403.26675,486.22085 C 403.26675,480.94912 399.46925,478.58842 395.70914,478.58842 L 382.06812,478.58842 C 380.00676,478.58842 379.08256,477.06428 379.08256,475.96517 L 379.08256,473.26677 C 379.08256,471.55558 380.2191,470.58118 382.21778,470.58118 L 397.33303,470.58118 C 399.18176,470.58118 400.56835,469.25693 400.56835,467.49551 L 400.56835,466.68357 C 400.56835,464.93462 399.1568,463.5982 397.27068,463.5982 L 380.98116,463.5982" />
      <path
         style="fill:#ffffff;fill-opacity:1;stroke:none"
         id="path2099"
         d="M 437.70666,463.5608 C 435.92031,463.5608 434.47133,465.00978 434.47133,466.79612 L 434.47133,490.03086 C 434.47133,491.87956 432.9597,493.37875 431.12345,493.37875 L 420.58025,493.37875 C 418.73155,493.37875 417.23233,491.87956 417.23233,490.03086 L 417.23233,466.79612 C 417.23233,465.00978 415.79586,463.5608 413.99704,463.5608 L 412.97273,463.5608 C 411.17391,463.5608 409.7374,464.98482 409.7374,466.79612 L 409.7374,490.91763 C 409.7374,496.52647 414.14702,500.59899 420.2304,500.59899 L 431.49824,500.59899 C 437.58162,500.59899 441.99121,496.52647 441.99121,490.91763 L 441.99121,466.79612 C 441.99121,464.98482 440.56722,463.5608 438.75592,463.5608 L 437.73161,463.5608" />
      <path
         style="fill:#ffffff;fill-opacity:1;stroke:none"
         id="path2101"
         d="M 457.90593,463.5608 C 451.85998,463.5608 448.5121,468.68225 448.5121,472.22999 L 448.5121,476.77712 C 448.5121,481.9862 452.78418,485.22153 456.73167,485.22153 L 470.5975,485.22153 C 472.33397,485.22153 472.70877,486.35806 472.70877,487.31999 L 472.70877,490.25568 C 472.70877,490.56779 472.64641,493.39122 470.5975,493.39122 L 451.6726,493.39122 C 449.79862,493.39122 448.43727,494.69022 448.43727,496.47656 L 448.43727,497.28854 C 448.43727,499.06241 449.79862,500.37421 451.6726,500.37421 L 471.62211,500.37421 C 476.84367,500.37421 480.2037,496.75128 480.2037,491.13 L 480.2037,486.22085 C 480.2037,480.94912 476.419,478.58842 472.64641,478.58842 L 459.00507,478.58842 C 456.94403,478.58842 456.01983,477.06428 456.01983,475.96517 L 456.01983,473.26677 C 456.01983,471.55558 457.15637,470.58118 459.14257,470.58118 L 474.25782,470.58118 C 476.09408,470.58118 477.49318,469.25693 477.49318,467.49551 L 477.49318,466.68357 C 477.49318,464.93462 476.0816,463.5982 474.1827,463.5982 L 457.90593,463.5982" />
      <path
         style="fill:#ffffff;fill-opacity:1;stroke:none"
         id="path2103"
         d="M 489.79745,463.5608 C 488.0114,463.5608 486.63725,464.88471 486.63725,466.64614 L 486.63725,497.28854 C 486.63725,499.03745 487.9612,500.37421 489.7351,500.37421 L 514.15658,500.37421 C 516.03056,500.37421 517.39223,499.07488 517.39223,497.28854 L 517.39223,496.47656 C 517.39223,494.70269 516.04303,493.39122 514.15658,493.39122 C 514.15658,493.39122 495.05674,493.39122 494.15716,493.39122 C 494.15716,492.59175 494.15716,486.38331 494.15716,485.58385 C 495.05674,485.58385 508.81031,485.58385 508.81031,485.58385 C 510.68396,485.58385 512.04564,484.28452 512.04564,482.4857 L 512.04564,481.68623 C 512.04564,479.89989 510.68396,478.58842 508.81031,478.58842 C 508.81031,478.58842 495.05674,478.58842 494.15716,478.58842 C 494.15716,477.78895 494.15716,471.36817 494.15716,470.56871 C 495.05674,470.56871 513.14474,470.56871 513.14474,470.56871 C 515.01875,470.56871 516.3804,469.26938 516.3804,467.48303 L 516.3804,466.67109 C 516.3804,464.88471 515.01875,463.58575 513.14474,463.58575 L 489.81025,463.58575" />
      <path
         style="fill:#ffffff;fill-opacity:1;stroke:none"
         id="path2105"
         d="M 282.17071,478.13846 C 279.1227,478.13846 276.63682,480.51197 276.63682,483.44763 L 276.63682,495.00266 C 276.63682,497.97575 279.03525,500.39913 281.98335,500.39913 L 289.45345,500.39913 C 292.40152,500.39913 294.81243,497.97575 294.81243,495.00266 L 294.81243,483.44763 C 294.81243,480.52445 292.32658,478.13846 289.27854,478.13846 L 282.17071,478.13846 z M 280.55927,494.55271 L 280.55927,484.00984 C 280.55927,482.77289 281.5711,481.76106 282.8078,481.76106 L 288.629,481.76106 C 289.84072,481.76106 290.87751,482.78567 290.87751,484.00984 L 290.87751,494.55271 C 290.87751,495.78968 289.86568,496.80148 288.629,496.80148 L 282.75781,496.80148 C 281.52113,496.80148 280.55927,495.8146 280.55927,494.55271" />
      <path
         style="fill:#ffffff;fill-opacity:1;stroke:none"
         id="path2107"
         d="M 311.75149,478.00128 C 309.59034,478.00128 307.97884,478.77583 306.66719,479.40036 C 305.88023,479.77485 305.19317,480.09975 304.65604,480.09975 C 304.43119,480.09975 304.2188,479.99997 304.10636,479.82506 L 303.61919,478.87558 C 303.50676,478.62584 303.00708,478.13846 302.38252,478.13846 L 301.658,478.13846 C 300.95843,478.13846 300.38381,478.76335 300.38381,479.55001 L 300.38381,508.84354 C 300.38381,509.75526 301.09585,510.4799 302.02026,510.4799 L 302.65732,510.4799 C 303.55675,510.4799 304.29378,509.74279 304.29378,508.84354 L 304.29378,499.12476 C 304.29378,498.83759 304.48113,498.53763 304.65604,498.53763 C 305.19317,498.53763 305.88023,498.83759 306.6797,499.21239 C 307.97884,499.79952 309.60282,500.54878 311.76396,500.54878 L 312.4384,500.54878 C 316.24841,500.54878 318.62189,498.3755 318.62189,494.87763 L 318.62189,483.69739 C 318.62189,480.24973 316.1985,478.01376 312.4384,478.01376 L 311.75149,478.01376 L 311.75149,478.01376 L 311.75149,478.00128 z M 304.28127,494.3279 L 304.28127,484.24712 C 304.28127,482.86053 305.36808,481.77354 306.75465,481.77354 L 312.20111,481.77354 C 313.58774,481.77354 314.67437,482.86053 314.67437,484.24712 L 314.67437,494.3279 C 314.67437,495.68957 313.57526,496.80148 312.20111,496.80148 L 306.75465,496.80148 C 305.39306,496.80148 304.28127,495.68957 304.28127,494.3279" />
      <path
         style="fill:#ffffff;fill-opacity:1;stroke:none"
         id="path2109"
         d="M 329.68954,478.13846 C 326.6416,478.13846 324.15586,480.51197 324.15586,483.44763 L 324.15586,494.91503 C 324.15586,497.88814 326.56677,500.41161 329.41482,500.41161 L 337.12245,500.41161 C 338.07157,500.41161 338.75881,499.76179 338.75881,498.86255 L 338.75881,498.36269 C 338.75881,497.46344 338.07157,496.81396 337.12245,496.81396 L 330.80145,496.81396 C 329.02758,496.81396 328.09058,495.95181 328.09058,494.29047 C 328.09058,494.29047 328.09058,491.40502 328.09058,490.94259 C 328.60288,490.94259 339.5084,490.94259 339.5084,490.94259 C 341.33218,490.94259 342.43128,489.81853 342.43128,487.9196 L 342.43128,483.47261 C 342.43128,480.54937 339.94555,478.16374 336.89764,478.16374 L 329.70231,478.16374 L 329.68954,478.13846 z M 328.0781,483.95963 C 328.0781,482.73546 329.04003,481.76106 330.27667,481.76106 L 336.28522,481.76106 C 337.52217,481.76106 338.48379,482.72299 338.48379,483.95963 C 338.48379,483.95963 338.48379,487.07023 338.48379,487.53235 C 337.99674,487.53235 328.56548,487.53235 328.0781,487.53235 C 328.0781,487.07023 328.0781,483.95963 328.0781,483.95963" />
      <path
         style="fill:#ffffff;fill-opacity:1;stroke:none"
         id="path2111"
         d="M 358.32108,478.00128 C 356.17241,478.00128 354.5485,478.76335 353.2492,479.38791 C 352.43723,479.76238 351.73784,480.09975 351.17566,480.09975 C 350.9259,480.09975 350.82582,480.07479 350.63841,479.73743 L 350.18878,478.91301 C 349.93902,478.40103 349.50187,478.13846 348.90226,478.13846 L 348.26493,478.13846 C 347.50319,478.13846 346.95346,478.72559 346.95346,479.55001 L 346.95346,498.76244 C 346.95346,499.67449 347.6778,500.41161 348.58982,500.41161 L 349.22685,500.41161 C 350.12643,500.41161 350.86322,499.67449 350.86322,498.76244 L 350.86322,484.22217 C 350.86322,482.86053 351.97513,481.74858 353.3368,481.74858 L 358.78318,481.74858 C 360.14485,481.74858 361.25644,482.86053 361.25644,484.22217 L 361.25644,498.76244 C 361.25644,499.67449 361.98107,500.41161 362.89313,500.41161 L 363.53016,500.41161 C 364.42941,500.41161 365.16653,499.67449 365.16653,498.76244 L 365.16653,483.68492 C 365.16653,480.23725 362.74314,478.00128 358.98304,478.00128 L 358.29613,478.00128" />
    </g>
    <text
       style="font-size:150.49784851px;font-style:normal;font-variant:normal;font-weight:bold;font-stretch:normal;text-align:start;line-height:125%;writing-mode:lr-tb;text-anchor:start;opacity:1;color:#000000;fill:url(#linearGradient6552);fill-opacity:1;fill-rule:nonzero;stroke:none;stroke-width:0.61499679;stroke-linecap:butt;stroke-linejoin:miter;marker:none;marker-start:none;marker-mid:none;marker-end:none;stroke-miterlimit:4;stroke-dasharray:none;stroke-dashoffset:0;stroke-opacity:1;visibility:visible;display:inline;overflow:visible;enable-background:accumulate;font-family:Candara"
       y="474.03885"
       x="560.78418"
       sodipodi:linespacing="125%"
       id="text6123"
       xml:space="preserve"><tspan
         sodipodi:role="line"
         dy="0 0 0 10"
         style="letter-spacing:-21.25;color:#000000;fill:url(#linearGradient6552);fill-opacity:1;fill-rule:nonzero;stroke:none;stroke-width:0.61499679;stroke-linecap:butt;stroke-linejoin:miter;marker:none;marker-start:none;marker-mid:none;marker-end:none;stroke-miterlimit:4;stroke-dasharray:none;stroke-dashoffset:0;stroke-opacity:1;visibility:visible;display:inline;overflow:visible;enable-background:accumulate"
         y="474.03885"
         x="560.78418"
         id="tspan6125">10.3</tspan></text>
    <path
       style="font-size:150.49784851px;font-style:normal;font-variant:normal;font-weight:bold;font-stretch:normal;text-align:start;line-height:125%;writing-mode:lr-tb;text-anchor:start;opacity:1;color:#000000;fill:url(#linearGradient6617);fill-opacity:1.0;fill-rule:nonzero;stroke:none;stroke-width:0.61499679;stroke-linecap:butt;stroke-linejoin:miter;marker:none;marker-start:none;marker-mid:none;marker-end:none;stroke-miterlimit:4;stroke-dasharray:none;stroke-dashoffset:0;stroke-opacity:1;visibility:visible;display:inline;overflow:visible;enable-background:accumulate;font-family:Candara"
       d="M 631.3125 395.875 C 620.36946 395.87508 612.17336 399.63061 606.375 407.1875 C 603.50804 410.95485 601.36051 415.42107 599.90625 420.65625 C 599.76456 421.11611 599.31979 421.41399 598.84375 421.34375 C 598.42197 421.28153 598.10199 420.93959 598.03125 420.53125 C 598.02182 421.15932 598.01102 421.72463 598 422.375 C 598.00285 422.85619 598.3677 423.27352 598.84375 423.34375 C 599.31979 423.41399 599.76456 423.11611 599.90625 422.65625 C 601.36051 417.42107 603.50804 412.95485 606.375 409.1875 C 612.17336 401.63061 620.36946 397.87508 631.3125 397.875 C 641.83046 397.87508 649.61123 401.22431 654.90625 407.9375 C 660.06448 414.43149 662.76382 423.79401 662.90625 436.125 C 662.91014 435.80176 662.90625 435.48418 662.90625 435.15625 C 662.90618 422.31063 660.20834 412.61261 654.90625 405.9375 C 649.61123 399.22431 641.83046 395.87508 631.3125 395.875 z M 590.59375 397.40625 L 565.71875 416.5625 L 566.46875 417.96875 L 590.59375 399.40625 L 598.34375 399.40625 C 598.3606 398.67201 598.35515 398.18684 598.375 397.40625 L 590.59375 397.40625 z M 696.84375 406.8125 C 686.71103 406.81258 680.01883 407.4596 676.71875 408.5 L 675.59375 420.125 C 675.65448 420.11391 675.72033 420.10468 675.78125 420.09375 L 676.71875 410.5 C 680.01883 409.4596 686.71103 408.81258 696.84375 408.8125 C 705.97066 408.81257 712.85866 410.68324 717.625 414.28125 C 721.73464 417.47287 723.867 421.61399 724.125 426.90625 C 724.13986 426.60345 724.15624 426.30646 724.15625 426 C 724.15619 420.17141 722.0172 415.69231 717.625 412.28125 C 712.85866 408.68324 705.97066 406.81257 696.84375 406.8125 z M 708.40625 432.8125 C 707.98941 437.02553 705.15899 440.55386 700.25 443.21875 C 695.16246 445.95822 688.66186 447.33739 680.875 447.4375 L 679.90625 454.78125 C 679.8526 455.18487 679.55323 455.50321 679.15625 455.59375 C 678.75929 455.6843 678.34835 455.52795 678.125 455.1875 C 677.69509 454.51415 677.51404 453.98374 677.25 453.6875 C 677.23958 453.68767 677.22917 453.68767 677.21875 453.6875 C 675.40444 451.60773 672.89469 450.53129 669.375 450.53125 C 666.6829 450.53127 664.4641 451.13914 662.5625 452.15625 C 662.22289 452.3381 661.80409 452.29901 661.5 452.0625 C 661.44931 452.02308 661.41608 451.98482 661.375 451.9375 C 661.2946 452.31265 661.24211 452.69407 661.15625 453.0625 C 661.06359 453.43643 661.19589 453.826 661.5 454.0625 C 661.80409 454.29901 662.22289 454.3381 662.5625 454.15625 C 664.4641 453.13914 666.6829 452.53127 669.375 452.53125 C 672.89469 452.53129 675.40444 453.60773 677.21875 455.6875 C 677.22917 455.68767 677.23958 455.68767 677.25 455.6875 C 677.51404 455.98374 677.69509 456.51415 678.125 457.1875 C 678.34835 457.52795 678.75929 457.6843 679.15625 457.59375 C 679.55323 457.50321 679.8526 457.18487 679.90625 456.78125 L 680.875 449.4375 C 688.66186 449.33739 695.16246 447.95822 700.25 445.21875 C 705.57868 442.32603 708.46871 438.41799 708.46875 433.71875 C 708.46875 433.40988 708.42504 433.11204 708.40625 432.8125 z M 614.125 434.9375 C 614.12161 435.24495 614.09375 435.53069 614.09375 435.84375 C 614.09375 445.77338 615.30983 453.22111 617.9375 458.21875 C 617.94792 458.21892 617.95833 458.21892 617.96875 458.21875 C 620.66066 463.18843 625.19133 465.75001 631.09375 465.75 C 636.2237 465.75001 640.27951 463.64402 642.875 459.5625 C 645.47049 455.48098 646.68747 449.55153 646.6875 441.78125 C 646.6875 441.40741 646.66049 441.05592 646.65625 440.6875 C 646.56186 448.00236 645.36592 453.64542 642.875 457.5625 C 640.27951 461.64402 636.2237 463.75001 631.09375 463.75 C 625.19133 463.75001 620.66066 461.18843 617.96875 456.21875 C 617.95833 456.21892 617.94792 456.21892 617.9375 456.21875 C 615.40982 451.41127 614.2143 444.30765 614.125 434.9375 z M 581.53125 444.125 C 581.51678 451.56293 581.24121 461.30867 580.75 473.0625 L 580.84375 473.0625 C 581.29437 461.90853 581.53123 452.54451 581.53125 445.46875 C 581.53125 445.02857 581.53241 444.56848 581.53125 444.125 z M 707.375 448.5 C 707.30871 448.63344 707.24903 448.78127 707.25 448.9375 L 707.25 450.03125 C 707.24627 450.50985 707.59056 450.92035 708.0625 451 C 714.39348 452.04727 719.45628 454.73423 723.375 459.125 C 727.13457 463.28747 729.09315 468.32481 729.28125 474.3125 C 729.29384 473.95716 729.3125 473.60916 729.3125 473.25 C 729.31244 466.83993 727.33239 461.50649 723.375 457.125 C 719.45628 452.73423 714.39348 450.04727 708.0625 449 C 707.75975 448.9489 707.51451 448.75404 707.375 448.5 z M 597.96875 458.25 C 597.95774 458.31318 597.93569 458.37122 597.9375 458.4375 C 598.04737 463.14663 598.11786 467.49299 598.3125 473.0625 L 598.375 473.0625 C 598.14137 467.11952 598.06631 462.82716 597.96875 458.25 z M 679.8125 459.6875 C 679.78955 459.71048 679.77074 459.72457 679.75 459.75 C 679.56099 459.98168 679.49719 460.30197 679.5625 460.59375 C 679.70857 461.25401 679.85659 461.82977 679.9375 462.40625 C 679.96977 462.02207 680 461.6472 680 461.25 C 679.99999 460.72252 679.92353 460.21596 679.8125 459.6875 z M 712.1875 476.71875 C 711.85839 483.76959 707.71477 489.63472 700.0625 494.0625 C 692.60154 498.45127 682.58642 501.02141 670.125 501.9375 L 670.4375 503.90625 C 682.75055 502.96989 692.66548 500.41366 700.0625 496.0625 C 708.04336 491.44459 712.2187 485.27263 712.21875 477.8125 C 712.21875 477.44158 712.20946 477.07981 712.1875 476.71875 z "
       id="path6550" />
    <path
       clip-path="url(#clipPath8280)"
       style="opacity:1;color:#000000;fill:#f1f1f1;fill-opacity:1;fill-rule:nonzero;stroke:none;stroke-width:3;stroke-linecap:round;stroke-linejoin:round;marker:none;marker-start:none;marker-mid:none;marker-end:none;stroke-miterlimit:4;stroke-dasharray:none;stroke-dashoffset:0;stroke-opacity:1;visibility:visible;display:inline;overflow:visible;enable-background:accumulate"
       d="M 672.06927,397.47066 C 668.70577,401.04013 647.05102,417.27828 643.37426,420.51645 C 633.87263,428.61444 629.38534,438.15145 620.1185,446.51875 C 610.90115,454.82349 601.8836,463.60102 593.39082,472.63161 C 587.74797,478.7337 585.29211,482.36338 579.40102,488.22532 C 577.09548,490.48987 578.19526,489.42393 576.10584,491.42748 C 574.14329,491.41956 573.07523,490.45451 574.41025,486.9182 C 576.43796,485.06089 578.28569,487.50965 580.52642,485.39158 C 586.36415,479.73655 588.73304,476.27701 594.28919,470.34452 C 602.76804,461.41072 611.76957,452.72984 620.93489,444.48814 C 630.32156,436.02476 634.92722,426.38643 644.38513,418.00343 C 648.2151,414.49207 670.00671,397.96532 673.44025,394.05642 L 672.06927,397.47066 z"
       sodipodi:nodetypes="ccccccccccccc"
       id="path7797" />
    <path
       style="opacity:0.13529412;color:#000000;fill:#000000;fill-opacity:1;fill-rule:nonzero;stroke:none;stroke-width:3;stroke-linecap:round;stroke-linejoin:round;marker:none;marker-start:none;marker-mid:none;marker-end:none;stroke-miterlimit:4;stroke-dasharray:none;stroke-dashoffset:0;stroke-opacity:1;visibility:visible;display:inline;overflow:visible;filter:url(#filter8318);enable-background:accumulate"
       d="M 700.125,461.125 C 707.12691,459.34864 714.19122,458.07145 720.875,453.75 L 718.875,452 C 713.12642,456.84695 706.04667,458.69875 699,460.625 L 700.125,461.125 z"
       sodipodi:nodetypes="ccccc"
       id="path8284" />
    <path
       style="opacity:1;color:#000000;fill:#ffffff;fill-opacity:1;fill-rule:nonzero;stroke:none;stroke-width:0.61499679;stroke-linecap:butt;stroke-linejoin:miter;marker:none;marker-start:none;marker-mid:none;marker-end:none;stroke-miterlimit:4;stroke-dasharray:none;stroke-dashoffset:0;stroke-opacity:1;visibility:visible;display:inline;overflow:visible;enable-background:accumulate"
       d="M 668.5866,398.64183 C 667.52751,390.2718 674.97838,387.00775 683.42829,384.34313 L 683.88078,385.8816 C 683.88078,385.8816 691.84666,378.99608 702.34239,381.44719 C 743.36035,391.02626 742.07091,455.10547 696.9125,461.33101 C 683.06834,463.2343 675.64119,454.19531 676.79194,450.53175 C 678.97861,443.57018 685.95374,452.58323 680.57874,452.33323 C 683.73317,451.36428 678.73539,447.03909 678.36039,451.40223 C 678.08203,454.64099 683.00169,460.39152 695.50752,459.54706 C 723.4994,457.6569 734.10601,428.16843 719.33906,406.06378 L 716.75796,404.72577 L 717.94012,408.56263 L 716.28992,410.85607 L 712.13768,408.77278 L 713.52502,407.15419 L 711.89617,402.66563 L 712.67035,406.77995 L 709.80424,410.10493 L 708.25624,408.04973 L 702.96827,408.23605 L 706.97642,406.61629 L 708.68971,405.15119 L 707.23381,401.61129 L 699.13197,400.63279 L 690.93963,407.87264 L 688.77616,412.28952 L 688.14719,408.92808 L 684.85928,406.28555 L 686.32874,406.60114 L 688.77219,406.05815 L 693.65457,400.72329 L 692.65909,400.2708 L 688.58667,400.36129 L 687.4102,405.33869 L 677.52441,407.46655 L 678.9079,411.53444 L 675.49046,410.00501 C 675.49046,410.00501 675.09453,415.21488 675.09453,415.21488 C 675.09453,415.21488 671.46104,408.73352 671.46104,408.73352 L 682.8853,403.61922 L 683.24728,400.2708 L 669.58207,400.45179 L 669.49158,399.27532 L 668.5866,398.64183 z"
       sodipodi:nodetypes="cccssscssccccccccccccccccccccccccccccscccccc"
       id="path7186" />
    <path
       style="opacity:1;color:#000000;fill:url(#linearGradient7210);fill-opacity:1.0;fill-rule:nonzero;stroke:none;stroke-width:0.61499679;stroke-linecap:butt;stroke-linejoin:miter;marker:none;marker-start:none;marker-mid:none;marker-end:none;stroke-miterlimit:4;stroke-dasharray:none;stroke-dashoffset:0;stroke-opacity:1;visibility:visible;display:inline;overflow:visible;enable-background:accumulate"
       d="M 684.35,389.125 C 684.35,389.125 683.625,398.25 681.75,399.25 L 670.5125,400.125 L 680.2,396.4625 L 679.1375,398.775 C 680.425,397.1656 681.7125,396.77848 683,393.825 C 679.51007,396.16459 673.95,397.95 673.95,397.95 C 671.71231,398.72668 670.98895,395.6194 671.275,393.975 L 673.95,396.225 L 678.25,392.725 L 684.35,389.125 z"
       sodipodi:nodetypes="ccccccccccc"
       id="path7193" />
    <path
       style="opacity:1;color:#000000;fill:#478c05;fill-opacity:1;fill-rule:nonzero;stroke:none;stroke-width:0.61499679;stroke-linecap:butt;stroke-linejoin:miter;marker:none;marker-start:none;marker-mid:none;marker-end:none;stroke-miterlimit:4;stroke-dasharray:none;stroke-dashoffset:0;stroke-opacity:1;visibility:visible;display:inline;overflow:visible;enable-background:accumulate"
       sodipodi:cx="678.5"
       sodipodi:cy="391"
       sodipodi:type="arc"
       transform="matrix(0.8125,0,0,0.8125,123.21875,75.8125)"
       d="M 682.5,391 A 4,4 0 1 1 674.5,391 A 4,4 0 1 1 682.5,391 z"
       sodipodi:rx="4"
       id="path7189"
       sodipodi:ry="4" />
    <path
       style="opacity:1;color:#000000;fill:#ffffff;fill-opacity:1;fill-rule:nonzero;stroke:none;stroke-width:0.61499679;stroke-linecap:butt;stroke-linejoin:miter;marker:none;marker-start:none;marker-mid:none;marker-end:none;stroke-miterlimit:4;stroke-dasharray:none;stroke-dashoffset:0;stroke-opacity:1;visibility:visible;display:inline;overflow:visible;enable-background:accumulate"
       sodipodi:cx="674.25"
       sodipodi:cy="394.15625"
       sodipodi:type="arc"
       transform="matrix(0.8392857,0,0,1.2857143,108.20536,-112.55357)"
       d="M 676,394.15625 A 1.75,0.65625 0 1 1 672.5,394.15625 A 1.75,0.65625 0 1 1 676,394.15625 z"
       sodipodi:rx="1.75"
       id="path7191"
       sodipodi:ry="0.65625" />
    <path
       style="opacity:1;color:#000000;fill:#468b05;fill-opacity:1;fill-rule:nonzero;stroke:none;stroke-width:0.61499679;stroke-linecap:butt;stroke-linejoin:miter;marker:none;marker-start:none;marker-mid:none;marker-end:none;stroke-miterlimit:4;stroke-dasharray:none;stroke-dashoffset:0;stroke-opacity:1;visibility:visible;display:inline;overflow:visible;enable-background:accumulate"
       d="M 692,393.25 L 701,397.25 L 699.5,400.25 L 702.5,397 L 692,393.25 z"
       id="path7212" />
    <path
       style="opacity:1;color:#000000;fill:#458905;fill-opacity:1;fill-rule:nonzero;stroke:none;stroke-width:0.61499679;stroke-linecap:butt;stroke-linejoin:miter;marker:none;marker-start:none;marker-mid:none;marker-end:none;stroke-miterlimit:4;stroke-dasharray:none;stroke-dashoffset:0;stroke-opacity:1;visibility:visible;display:inline;overflow:visible;enable-background:accumulate"
       d="M 706.75,399.75 L 704,392.25 L 719,399 L 705,393.5 L 706.75,399.75 z"
       sodipodi:nodetypes="ccccc"
       id="path7214" />
    <path
       style="opacity:0.13529412;color:#000000;fill:#000000;fill-opacity:1;fill-rule:nonzero;stroke:none;stroke-width:3;stroke-linecap:round;stroke-linejoin:round;marker:none;marker-start:none;marker-mid:none;marker-end:none;stroke-miterlimit:4;stroke-dasharray:none;stroke-dashoffset:0;stroke-opacity:1;visibility:visible;display:inline;overflow:visible;enable-background:accumulate;filter:url(#filter8352)"
       d="M 616.875,450.5 L 617.375,452.25 L 615.125,452.5 L 602.625,464.75 L 602.25,463.875 L 615.5,450.875 L 616.875,450.5 z"
       id="path8322" />
    <path
       style="opacity:0.13529412;color:#000000;fill:#000000;fill-opacity:1;fill-rule:nonzero;stroke:none;stroke-width:3;stroke-linecap:round;stroke-linejoin:round;marker:none;marker-start:none;marker-mid:none;marker-end:none;stroke-miterlimit:4;stroke-dasharray:none;stroke-dashoffset:0;stroke-opacity:1;visibility:visible;display:inline;overflow:visible;enable-background:accumulate;filter:url(#filter8394)"
       d="M 592.25,473.875 L 593.25,474 L 599.125,468 L 599,466.375 L 592.25,473.875 z"
       id="path8356" />
    <rect
       style="opacity:0.15882353;color:#000000;fill:#ffffff;fill-opacity:1;fill-rule:nonzero;stroke:none;stroke-width:3;stroke-linecap:round;stroke-linejoin:round;marker:none;marker-start:none;marker-mid:none;marker-end:none;stroke-miterlimit:4;stroke-dasharray:none;stroke-dashoffset:0;stroke-opacity:1;visibility:visible;display:inline;overflow:visible;enable-background:accumulate"
       id="rect4744"
       width="226"
       height="2"
       x="499"
       y="532"
       rx="0.90156513"
       ry="0.97199976" />
    <rect
       ry="1.9439995"
       rx="0.42285797"
       y="531"
       x="499"
       height="4"
       width="106"
       id="rect4746"
       style="opacity:1;color:#000000;fill:#ffffff;fill-opacity:1;fill-rule:nonzero;stroke:none;stroke-width:3;stroke-linecap:round;stroke-linejoin:round;marker:none;marker-start:none;marker-mid:none;marker-end:none;stroke-miterlimit:4;stroke-dasharray:none;stroke-dashoffset:0;stroke-opacity:1;visibility:visible;display:inline;overflow:visible;enable-background:accumulate" />
  </g>
</svg>
