<svg xmlns="http://www.w3.org/2000/svg" viewBox="0 0 80 15" width="80" height="15">
<rect width="80" height="15"/>
<path d="M1.9 1.9h20.1 q4.3 5.6 0 11.2h-20.1z" fill="#aaa"/>
<ellipse cx="12.6" cy="7.5" rx="7" ry="6.65" stroke-width="1.35" stroke="#000" fill="#fff"/>
<path d="M11.5 6.828c-.19-.395-.48-.593-.86-.593-.6763 0-1.014.4304-1.014 1.291s.338 1.291 1.014 1.291c.4466.0.7656-.2095.957-.6293l.9375.4718c-.4468.7504-1.117 1.126-2.011 1.126-.6894 0-1.242-.1998-1.656-.599-.424-.401-.631-.951-.631-1.654.0-.6899.2138-1.238.6416-1.643.4278-.4057.9606-.6084 1.599-.6084.9449 0 1.621.3519 2.03 1.055l-1.015.491z"/>
<path d="M15.91 6.828c-.19-.395-.48-.593-.86-.593-.6763 0-1.014.4304-1.014 1.291s.338 1.291 1.014 1.291c.4466.0.7656-.2095.957-.6293l.9375.4718c-.4468.7504-1.117 1.126-2.011 1.126-.6894 0-1.242-.1998-1.656-.599-.424-.401-.631-.951-.631-1.654.0-.6899.2138-1.238.6416-1.643.4278-.4057.9606-.6084 1.599-.6084.9449 0 1.621.3519 2.03 1.055l-1.015.491z"/>
<path d="M26.66 4.75v5.59h2.56c.79 0 1.36-.14 1.75-.402.39-.266.59-.679.59-1.219.0-.353-.1-.633-.28-.875-.18-.243-.42-.41-.75-.5.26-.093.46-.248.59-.438.14-.192.19-.415.19-.687.0-.518-.19-.89-.56-1.125s-.95-.344-1.78-.344h-2.31z m1.53.969h.87c.24.0.41.054.53.156.13.1.19.245.19.437.0.196-.06.338-.19.438-.12.1-.29.156-.53.156h-.87v-1.187z m0 2.156h.9c.32.0.56.065.72.187.16.121.22.32.22.563.0.247-.06.409-.22.531-.15.123-.41.188-.72.188h-.9v-1.469z" fill="#fff"/>
<path d="M31.42 4.737h1.682l1.359 1.995l1.359-1.995h1.686l-2.28 3.241v2.359h-1.537v-2.362l-2.273-3.241" fill="#fff"/>
<rect x="36.67" y="7.58" width="2.5" height="1" fill="#fff"/>
<path d="M44.54 4.914v1.185c-.33-.1379-.65-.2409-.96-.3109s-.61-.105-.88-.105c-.3676 0-.6393.04751-.8151.1425-.1758.09503-.2637.2426-.2637.4426.0.15.05856.2676.1758.3526.1199.08251.3356.1538.6473.2138l.6553.1238c.6633.125 1.135.3151 1.414.5701.2797.2551.4196.6177.4196 1.088.0.6177-.1958 1.078-.5874 1.38-.3889.3-.9843.4501-1.786.4501-.3783 0-.7579-.03379-1.139-.1013-.3809-.06748-.7619-.1675-1.143-.3v-1.218c.3809.19.7485.3338 1.103.4313.357.09502.7006.1425 1.031.1425.3356.0.5927-.05255.7712-.1575s.2677-.2551.2677-.4501c0-.175-.06123-.3101-.1838-.4051-.13-.095-.37-.18-.73-.255l-.6-.124c-.59-.12-1.03-.311-1.31-.574-.27-.262-.41-.616-.41-1.061.0-.5576.1918-.9865.5754-1.287.38-.3.93-.45 1.65-.45.3277.0.6646.02371 1.011.07131c.3463.045.7046.1138 1.075.2063" fill="#fff"/>
<path d="M47.78 4.75l-2.22 5.59h1.56l.38-1.028h2.41l.37 1.028h1.53l-2.19-5.59h-1.84z m.94 1.312l.78 2.219h-1.62l.84-2.219z" fill="#fff"/>
<rect x="1.45" y="1.45" width="77.1" height="12.1" stroke-width=".9" fill="none" stroke="#fff"/>
</svg>